<svg id="Layer_1" data-name="Layer 1" xmlns="http://www.w3.org/2000/svg" viewBox="0 0 2032.94 556.72"><defs><style>.cls-1{fill:#fff;}.cls-2{fill:#f2d337;}.cls-3{fill:#d8b13c;}.cls-4{fill:none;}</style></defs><title>inventool</title><path d="M100.55,597.16H20.76q0-18.55.35-56.48t.35-103.1q0-28.31-.12-68.54t-.58-82.46h79.79q-.22,33.41-.34,74.69t-.12,73.53q0,57.75.23,97.41T100.55,597.16Z" transform="translate(-20.76 -46.41)"/><path d="M354.64,597.16h-73.3q.24-7.67.35-34.21t.12-46.51q0-14.61-.12-35.49t-.11-30.85q0-21.09-5.34-29.8t-19-8.7q-9.51,0-21.92,5.1a144.69,144.69,0,0,0-22.61,11.6q0,1.86-.23,27.6t-.23,42.68q0,25.29.34,59.73t.35,38.85H139.16q0-7.89.35-37.7t.35-78q0-32.71-.12-61.7t-.58-59.61h71.91l-.24,19.48.47.47A222.08,222.08,0,0,1,251.54,362q22.38-7.65,40-7.65,29.34,0,46.1,18.9t16.76,50.45q0,26.44-.12,44.54t-.11,30.38q0,20.18.23,54.62T354.64,597.16Z" transform="translate(-20.76 -46.41)"/><path d="M631.92,370.66q-27.84,72.87-52.07,139.47t-31,87H476.75q-7.2-21.81-30.39-84.13T393.25,371.36L468,355.47l45.87,148.21h1.62l44.36-148Z" transform="translate(-20.76 -46.41)"/><path d="M884.22,493.51H771.42c-16.11,0-26.55,6-18.64,20,.06.09.11.18.16.27q7.89,13.82,24.82,22.62A104.11,104.11,0,0,0,805,546.06,154.56,154.56,0,0,0,835.75,549q13.44,0,22-.34L871.7,548l12.52,51.72c-3.71.31-28.37,1.35-34.56,1.74s-13.84.58-23,.58c-25.05,0-53.46,3.56-73.1-2.32s-36.34-14.92-50.1-27.14a114.72,114.72,0,0,1-28.41-39.08c-6.73-15.08-4-37.77-4-55.09q0-27.13,7.53-48.24t24.94-40.36a91.79,91.79,0,0,1,35.37-24.59,115.53,115.53,0,0,1,43-8.35q23.21,0,41.64,7.08A81.88,81.88,0,0,1,855,385.2,98.66,98.66,0,0,1,877.38,426C881.79,441.8,884.07,471.86,884.22,493.51ZM816,450.61q-1.62-23-10.67-35.84T779.62,401.9a32.41,32.41,0,0,0-26.21,12.41q-10.21,12.4-13.46,36.3Z" transform="translate(-20.76 -46.41)"/><path d="M1138.31,597.16H1065q.24-7.67.35-34.21t.12-46.51q0-14.61-.12-35.49t-.11-30.85q0-21.09-5.34-29.8t-19-8.7q-9.51,0-21.92,5.1a144.69,144.69,0,0,0-22.61,11.6q0,1.86-.23,27.6t-.24,42.68q0,25.29.35,59.73t.35,38.85H922.83q0-7.89.35-37.7t.35-78q0-32.71-.12-61.7t-.58-59.61h71.9l-.23,19.48.47.47a221.77,221.77,0,0,1,40.24-18.1q22.38-7.65,40-7.65,29.34,0,46.1,18.9t16.76,50.45q0,26.44-.12,44.54t-.12,30.38q0,20.18.24,54.62T1138.31,597.16Z" transform="translate(-20.76 -46.41)"/><path d="M1353.43,545.9l-6.73,52.65c-2.32.31-5.65.54-10,.69s-10.83.24-19.49.24q-52.18,0-79.79-20.56t-27.6-65.14q0-29.25.23-52.25t.24-48.54h-33.4V360.11h34.79V297.72h72.13v62.39h67.73V413h-67.73q0,5.58-.23,19.52t-.23,23q0,8.14.12,18.24t.11,24.28q0,25.34,12.18,36.48t45.58,11.15c2.47,0,4.79.05,7,.12S1352.19,545.9,1353.43,545.9Z" transform="translate(-20.76 -46.41)"/><path d="M2053.71,597.16h-74.23q0-16.93.24-63.9t.23-112.15q0-42-.12-84t-.35-80h74.23q-.24,29.91-.35,74.57t-.12,88q0,59.83.23,105.88T2053.71,597.16Z" transform="translate(-20.76 -46.41)"/><rect class="cls-1" x="1383.48" y="275.94" width="256.27" height="266.6"/><rect class="cls-1" x="1651.39" y="283.11" width="244.62" height="256.27"/><rect class="cls-1" x="1519.21" y="9.34" width="256.27" height="266.6"/><path d="M1752.06,238.53h-36.57a9.14,9.14,0,0,0-9.14,9.14v36.57a9.14,9.14,0,0,0,9.14,9.14h36.57a9.14,9.14,0,0,0,9.14-9.14V247.67A9.14,9.14,0,0,0,1752.06,238.53Zm-9.14,36.57h-18.29V256.81h18.29Z" transform="translate(-20.76 -46.41)"/><path class="cls-2" d="M1619.29,352.92h-36.58a9.14,9.14,0,0,0-9.14,9.14v36.57a9.14,9.14,0,0,0,9.14,9.14h36.58a9.14,9.14,0,0,0,9.14-9.14V362.06A9.14,9.14,0,0,0,1619.29,352.92Zm-9.15,36.57h-18.28V371.2h18.28Z" transform="translate(-20.76 -46.41)"/><path class="cls-3" d="M1893,504.08h-36.58a9.14,9.14,0,0,0-9.14,9.14v36.57a9.14,9.14,0,0,0,9.14,9.14H1893a9.14,9.14,0,0,0,9.14-9.14V513.22A9.14,9.14,0,0,0,1893,504.08Zm-9.15,36.57h-18.28V522.36h18.28Z" transform="translate(-20.76 -46.41)"/><path class="cls-2" d="M1651.6,307.88V597.15h289.27V307.88Zm261.46,261.46H1679.41V335.69h233.65Z" transform="translate(-20.76 -46.41)"/><polygon points="1790.31 0 1790.31 261.46 1762.49 261.46 1762.49 27.81 1528.85 27.81 1528.85 261.46 1501.03 261.46 1501.03 0 1790.31 0"/><line class="cls-4" x1="1528.84" y1="261.46" x2="1501.03" y2="261.46"/><path class="cls-3" d="M1679.41,597.16H1390.13V307.88h289.28ZM1418,569.34H1651.6V335.69H1418Z" transform="translate(-20.76 -46.41)"/><path class="cls-2" d="M1565.12,454.56H1428.4a8.32,8.32,0,0,1,0-16.64h136.72a8.32,8.32,0,1,1,0,16.64Z" transform="translate(-20.76 -46.41)"/><path class="cls-2" d="M1544.23,433.45H1431.05a6.89,6.89,0,0,1,0-13.78h113.18a6.89,6.89,0,0,1,0,13.78Z" transform="translate(-20.76 -46.41)"/><path d="M1697.9,142H1561.18a8.32,8.32,0,0,1,0-16.64H1697.9a8.32,8.32,0,0,1,0,16.64Z" transform="translate(-20.76 -46.41)"/><path d="M1677,120.91H1563.83a6.89,6.89,0,1,1,0-13.77H1677a6.89,6.89,0,1,1,0,13.77Z" transform="translate(-20.76 -46.41)"/><path class="cls-3" d="M1828.63,407.58H1691.91a8.32,8.32,0,0,1,0-16.64h136.72a8.32,8.32,0,0,1,0,16.64Z" transform="translate(-20.76 -46.41)"/><path class="cls-3" d="M1807.73,386.46H1694.56a6.89,6.89,0,1,1,0-13.77h113.17a6.89,6.89,0,1,1,0,13.77Z" transform="translate(-20.76 -46.41)"/></svg>