<?xml version="1.0" standalone="no"?>
<!DOCTYPE svg PUBLIC "-//W3C//DTD SVG 1.1//EN" "http://www.w3.org/Graphics/SVG/1.1/DTD/svg11.dtd" >
<svg xmlns="http://www.w3.org/2000/svg">
<metadata>Generated by IcoMoon</metadata>
<defs>
<font id="Lizziecons" horiz-adv-x="1024">
<font-face units-per-em="1024" ascent="960" descent="-64" />
<missing-glyph horiz-adv-x="1024" />
<glyph unicode="&#x20;" horiz-adv-x="512" d="" />
<glyph unicode="&#xe900;" glyph-name="alert-open" d="M685.653-64h-347.307c-0.073 0-0.16 0-0.247 0-25.557 0-48.685 10.399-65.384 27.196l-245.515 245.551c-16.802 16.703-27.2 39.831-27.2 65.388 0 0.074 0 0.149 0 0.223v-0.012 347.307c0 0.063 0 0.137 0 0.212 0 25.557 10.399 48.685 27.196 65.384l245.551 245.551c16.703 16.802 39.831 27.2 65.388 27.2 0.074 0 0.149 0 0.223 0h347.259c0.073 0 0.16 0 0.247 0 25.557 0 48.685-10.399 65.384-27.196l245.551-245.551c16.802-16.703 27.2-39.831 27.2-65.388 0-0.074 0-0.149 0-0.223v0.012-347.271c0-0.073 0-0.16 0-0.247 0-25.557-10.399-48.685-27.196-65.384l-245.551-245.551c-16.703-16.802-39.831-27.2-65.388-27.2-0.074 0-0.149 0-0.223 0h0.012zM340.196 33.209h343.609l242.987 242.987v343.609l-242.987 242.987h-343.609l-242.987-242.987v-343.609zM453.653 763.947h116.658v-499.022h-116.658v499.022zM570.347 180.658c0-32.224-26.123-58.347-58.347-58.347s-58.347 26.123-58.347 58.347c0 32.224 26.123 58.347 58.347 58.347s58.347-26.123 58.347-58.347z" />
<glyph unicode="&#xe901;" glyph-name="trashcan-open" d="M738.809-59.271h-461.689c-96.368 0.121-174.456 78.21-174.578 174.566v670.91h810.844v-670.898c-0.121-96.368-78.21-174.456-174.566-174.578h-0.012zM217.813 670.898v-555.591c0.040-32.738 26.569-59.266 59.303-59.307h461.693c32.738 0.040 59.266 26.569 59.307 59.303v555.595zM92.907 886.116h830.080v-69.191h-830.080v69.191zM942.222 797.724h-868.516v107.591h868.516zM112.142 836.16h791.644v30.72h-791.644zM300.444 936.071h415.040v-46.116h-415.040v46.116zM734.684 870.72h-453.476v84.551h453.476zM319.644 909.156h376.64v7.68h-376.64z" />
<glyph unicode="&#xe902;" glyph-name="trashcan" d="M94.507 812.516h834.987v-736c0-0.042 0-0.092 0-0.142 0-77.526-62.847-140.373-140.373-140.373h-554.24c-77.526 0-140.373 62.847-140.373 140.373v0 736cv0.142zM13.76 913.884h996.444v-83.022h-996.444v83.022zM262.898 960h498.24v-55.36h-498.24v55.36z" />
<glyph unicode="&#xe903;" glyph-name="alert" d="M1006.222 672.818l-269.404 269.404c-8.786 8.774-20.913 14.206-34.308 14.222h-381.017c-13.398-0.017-25.525-5.448-34.312-14.223l-269.403-269.403c-8.774-8.786-14.206-20.913-14.222-34.308v-381.016c0.017-13.398 5.448-25.525 14.223-34.312l269.403-269.403c8.786-8.774 20.913-14.206 34.308-14.222h381.017c13.398 0.017 25.525 5.448 34.312 14.223l269.403 269.403c8.774 8.786 14.206 20.913 14.222 34.308v381.016c-0.017 13.398-5.448 25.525-14.223 34.312l0.001-0.001zM458.667 792.889h106.667v-547.556h-106.667zM512 101.333c-29.455 0-53.333 23.878-53.333 53.333s23.878 53.333 53.333 53.333c29.455 0 53.333-23.878 53.333-53.333v0c0-29.455-23.878-53.333-53.333-53.333v0z" />
<glyph unicode="&#xe904;" glyph-name="inbox" d="M949.12 954.311h-874.24c-0.063 0-0.139 0-0.214 0-25.528 0-46.222-20.694-46.222-46.222 0-0.075 0-0.15 0.001-0.225v0.012-841.138c0-69.063 55.986-125.049 125.049-125.049v0h717.013c69.063 0 125.049 55.986 125.049 125.049v0 841.138c0 0.063 0 0.139 0 0.214 0 25.528-20.694 46.222-46.222 46.222-0.075 0-0.15 0-0.225-0.001h0.012zM867.556 137.956h-303.431c1.219-4.237 1.92-9.103 1.92-14.134 0-0.031 0-0.062 0-0.094v0.005c0-29.848-24.197-54.044-54.044-54.044s-54.044 24.197-54.044 54.044v0c0 0.026 0 0.058 0 0.089 0 5.030 0.701 9.897 2.011 14.507l-0.091-0.373h-303.431v711.111h711.111z" />
<glyph unicode="&#xe905;" glyph-name="clock" d="M512 960c-282.77 0-512-229.23-512-512s229.23-512 512-512c282.77 0 512 229.23 512 512v0c0 282.77-229.23 512-512 512v0zM695.751 214.933c-8.696-8.678-20.699-14.044-33.956-14.044s-25.26 5.366-33.956 14.045l-162.061 161.955v389.333c0 26.51 21.49 48 48 48s48-21.49 48-48v0-349.44l133.973-133.938c8.686-8.692 14.059-20.696 14.059-33.956s-5.372-25.264-14.059-33.956v0z" />
<glyph unicode="&#xe906;" glyph-name="clock-open" d="M512-58.667c-279.36 0-506.667 227.307-506.667 506.667s227.307 506.667 506.667 506.667 506.667-227.307 506.667-506.667-227.307-506.667-506.667-506.667zM512 873.742c-235.131 0-425.742-190.611-425.742-425.742s190.611-425.742 425.742-425.742c235.131 0 425.742 190.611 425.742 425.742v0c-0.263 235.025-190.717 425.479-425.717 425.742h-0.025zM643.556 215.004c-0.017 0-0.037 0-0.056 0-12.049 0-22.955 4.892-30.84 12.799l-147.592 147.592v354.347c0 24.134 19.564 43.698 43.698 43.698s43.698-19.564 43.698-43.698v-318.187l121.991-121.991c7.95-7.915 12.869-18.867 12.869-30.969 0-24.134-19.564-43.698-43.698-43.698-0.024 0-0.048 0-0.073 0h0.004z" />
<glyph unicode="&#xe907;" glyph-name="scheduled" d="M512 307.556c0-0.012 0-0.027 0-0.041 0-19.090 2.164-37.676 6.259-55.524l-0.321 1.662-507.271-193.209v304.924l530.88 59.271c-18.602-33.739-29.547-73.954-29.547-116.725 0-0.126 0-0.253 0-0.379v0.020zM750.222 554.667c-74.491-2.766-140.193-38.152-183.59-92.211l-0.375-0.483-555.591 59.342v303.573zM1034.667 450.453l-59.698-22.72c-13.697 24.281-30.318 45.038-49.758 62.756l-0.198 0.178zM974.969 427.733c-13.697 24.281-30.318 45.038-49.758 62.756l-0.198 0.178c-43.571 39.692-101.763 64-165.633 64-0.095 0-0.19 0-0.284 0h0.015c-2.987 0-6.009 0-8.96 0-132.675-4.899-238.371-113.636-238.371-247.059 0-136.535 110.683-247.218 247.218-247.218s247.218 110.683 247.218 247.218c0 44.176-11.587 85.645-31.887 121.535l0.64-1.231zM759.111 99.911c-0.031 0-0.067 0-0.103 0-114.62 0-207.538 92.918-207.538 207.538 0 46.19 15.090 88.856 40.608 123.337l-0.398-0.563c7.208 9.761 14.742 18.378 22.921 26.336l0.048 0.046c37.325 36.205 88.297 58.524 144.483 58.524 114.659 0 207.609-92.95 207.609-207.609s-92.95-207.609-207.609-207.609c-0.007 0-0.014 0-0.021 0h0.001zM838.258 200.142c-3.86-3.855-9.189-6.239-15.076-6.239s-11.216 2.384-15.076 6.239l-72.106 72v172.836c0 11.782 9.551 21.333 21.333 21.333s21.333-9.551 21.333-21.333v0-155.2l59.484-59.484c3.887-3.865 6.293-9.216 6.293-15.129 0-5.86-2.363-11.168-6.187-15.024l0.001 0.001z" />
<glyph unicode="&#xe908;" glyph-name="sent" d="M1024 450.453l-1024-390.009v304.924l712.889 79.573-712.889 76.373v303.573l1024-374.436z" />
<glyph unicode="&#xe909;" glyph-name="mail-open" d="M929.316 53.333h-834.631c-50.501 0.061-91.424 40.983-91.484 91.479v606.37c0.061 50.501 40.983 91.424 91.479 91.484h834.637c50.501-0.061 91.424-40.983 91.484-91.479v-606.37c-0.061-50.501-40.983-91.424-91.479-91.484h-0.006zM101.049 151.182h821.902v593.778h-821.902zM511.182 420.871c-6.051 0.005-11.636 1.993-16.143 5.349l0.072-0.051-349.902 257.671c-5.916 5.009-9.646 12.441-9.646 20.744 0 14.983 12.146 27.129 27.129 27.129 5.386 0 10.405-1.569 14.626-4.276l-0.108 0.065 333.618-245.689 325.618 245.333c4.423 3.259 9.979 5.215 15.993 5.215 14.983 0 27.129-12.146 27.129-27.129 0-8.665-4.063-16.382-10.387-21.349l-0.059-0.044-341.76-257.671c-4.441-3.309-10.035-5.298-16.094-5.298-0.030 0-0.059 0-0.089 0h0.005z" />
<glyph unicode="&#xe90a;" glyph-name="mail" d="M966.862 824.889h-909.76c0 0 0 0 0 0-25.571 0-46.314-20.668-46.435-46.211v-661.345c0.121-25.554 20.864-46.222 46.435-46.222 0 0 0 0 0.001 0h909.76c0.011 0 0.023 0 0.036 0 25.571 0 46.314 20.668 46.435 46.211v661.345c-0.121 25.554-20.864 46.222-46.435 46.222-0.013 0-0.025 0-0.038 0h0.002zM901.44 705.28l-372.551-280.889c-4.893-3.729-11.091-5.974-17.814-5.974-6.597 0-12.69 2.162-17.607 5.817l0.079-0.056-381.404 280.889c-7.070 5.461-11.578 13.94-11.578 23.473 0 16.338 13.244 29.582 29.582 29.582 6.391 0 12.308-2.026 17.145-5.472l-0.091 0.061 363.662-267.84 354.987 267.627c4.682 3.251 10.485 5.194 16.743 5.194 16.338 0 29.582-13.244 29.582-29.582 0-9.169-4.172-17.364-10.72-22.79l-0.049-0.040z" />
<glyph unicode="&#xe90b;" glyph-name="label-open" d="M771.804 175.36h-764.693v545.28h765.12l219.307-214.827c15.735-15.418 25.489-36.888 25.489-60.637 0-24.165-10.1-45.972-26.308-61.429l-0.034-0.032zM103.111 271.573h630.258l182.507 173.76-182.933 179.093h-629.831zM924.444 453.404v0z" />
<glyph unicode="&#xe90c;" glyph-name="label-alt-open" d="M688.249 119.893h-625.671c-31.593 0.029-57.194 25.647-57.194 57.244 0 16.211 6.738 30.847 17.566 41.262l0.019 0.018 236.053 226.347-236.658 233.387c-10.499 10.382-17.001 24.787-17.001 40.711 0 31.605 25.612 57.227 57.213 57.244h625.779c15.663-0.008 29.853-6.306 40.184-16.504l-0.006 0.006 278.507-274.702c10.525-10.386 17.045-24.809 17.045-40.754 0-16.225-6.75-30.873-17.595-41.289l-0.019-0.018-278.613-267.022c-10.264-9.855-24.227-15.925-39.608-15.929h-0.001zM204.942 234.347h460.302l219.449 210.418-219.804 216.889h-462.791l179.164-176.711c10.525-10.386 17.045-24.809 17.045-40.754 0-16.225-6.75-30.873-17.595-41.289l-0.019-0.018z" />
<glyph unicode="&#xe90d;" glyph-name="label-alt" d="M1006.436 419.164l-295.324-283.307c-6.119-5.873-14.441-9.49-23.608-9.493h-644.552c-18.846 0.007-34.121 15.286-34.121 34.133 0 9.679 4.029 18.417 10.501 24.629l0.012 0.011 244.124 234.062c6.481 6.223 10.507 14.959 10.507 24.635 0 9.502-3.883 18.097-10.148 24.286l-246.51 242.99c-6.266 6.191-10.147 14.785-10.147 24.284 0 18.844 15.269 34.121 34.11 34.133h645.761c0.068 0 0.148 0.001 0.229 0.001 9.281 0 17.696-3.704 23.849-9.714l-0.007 0.006 295.751-291.556c6.303-6.197 10.208-14.815 10.208-24.345 0-9.739-4.078-18.525-10.621-24.743l-0.015-0.014z" />
<glyph unicode="&#xe90e;" glyph-name="label" d="M1006.009 415.36l-227.342-216.249h-773.333v497.778h773.333l227.556-222.969c7.585-7.412 12.288-17.745 12.288-29.177 0-11.536-4.79-21.953-12.489-29.371l-0.013-0.012z" />
<glyph unicode="&#xe90f;" glyph-name="arrowrightbold" d="M225.778 2.418c0.006 17.13 6.994 32.626 18.271 43.8l0.005 0.005 404.444 401.778-404.444 401.778c-10.205 11.004-16.465 25.791-16.465 42.040 0 34.188 27.715 61.902 61.902 61.902 16.125 0 30.81-6.166 41.827-16.268l-0.046 0.041 448.676-445.582c11.286-11.216 18.271-26.748 18.271-43.911s-6.985-32.695-18.268-43.908l-448.679-445.585c-11.184-11.095-26.587-17.951-43.591-17.951-34.174 0-61.879 27.692-61.902 61.86v0.002z" />
<glyph unicode="&#xe910;" glyph-name="arrowleftbold" d="M798.222 893.582c-0.006-17.13-6.994-32.626-18.271-43.8l-0.005-0.005-404.444-401.778 404.444-401.778c10.705-11.111 17.299-26.247 17.299-42.924 0-34.188-27.715-61.902-61.902-61.902-16.526 0-31.539 6.476-42.641 17.028l0.026-0.025-448.676 445.689c-11.286 11.216-18.271 26.748-18.271 43.911s6.985 32.695 18.268 43.908l448.679 445.585c11.184 11.095 26.587 17.951 43.591 17.951 34.174 0 61.879-27.692 61.902-61.86v-0.002z" />
<glyph unicode="&#xe911;" glyph-name="arrowdownbold" d="M69.973 734.222c17.13-0.006 32.626-6.994 43.8-18.271l0.005-0.005 401.778-404.444 401.778 404.444c11.111 10.705 26.247 17.299 42.924 17.299 34.188 0 61.902-27.715 61.902-61.902 0-16.526-6.476-31.539-17.028-42.641l0.025 0.026-445.689-448.676c-11.216-11.286-26.748-18.271-43.911-18.271s-32.695 6.985-43.908 18.268l-445.585 448.679c-11.095 11.184-17.951 26.587-17.951 43.591 0 34.174 27.692 61.879 61.86 61.902h0.002z" />
<glyph unicode="&#xe912;" glyph-name="arrowright" d="M248.036-29.333c0 0.013 0 0.029 0 0.045 0 9.415 3.773 17.95 9.889 24.173l-0.005-0.005 444.836 454.293c2.486 2.558 4.018 6.054 4.018 9.907 0 0.042 0 0.084-0.001 0.126v-0.006c-0.042 3.896-1.668 7.403-4.263 9.916l-0.004 0.004-443.982 431.431c-6.505 6.307-10.543 15.126-10.543 24.889 0 19.136 15.513 34.65 34.65 34.65 9.374 0 17.878-3.722 24.116-9.769l-0.009 0.009 443.982-431.573c15.572-15.147 25.233-36.302 25.233-59.713 0-22.687-9.073-43.256-23.789-58.275l0.014 0.014-444.836-454.329c-6.284-6.41-15.034-10.384-24.711-10.384-19.107 0-34.596 15.489-34.596 34.596 0 0.001 0 0.001 0 0.002v0z" />
<glyph unicode="&#xe913;" glyph-name="arrowupbold" d="M957.582 161.778c-17.13 0.006-32.626 6.994-43.8 18.271l-0.005 0.005-401.778 404.444-401.778-404.444c-11.111-10.705-26.247-17.299-42.924-17.299-34.188 0-61.902 27.715-61.902 61.902 0 16.526 6.476 31.539 17.028 42.641l-0.025-0.026 445.689 448.676c11.216 11.286 26.748 18.271 43.911 18.271s32.695-6.985 43.908-18.268l445.585-448.679c11.095-11.184 17.951-26.587 17.951-43.591 0-34.174-27.692-61.879-61.86-61.902h-0.002z" />
<glyph unicode="&#xe914;" glyph-name="arrowdown" d="M34.667 711.964c0.013 0 0.029 0 0.045 0 9.415 0 17.95-3.773 24.173-9.889l454.288-444.831c2.558-2.486 6.054-4.018 9.907-4.018 0.042 0 0.084 0 0.126 0.001h-0.006c3.896 0.042 7.403 1.668 9.916 4.263l0.004 0.004 431.431 443.982c6.307 6.505 15.126 10.543 24.889 10.543 19.136 0 34.65-15.513 34.65-34.65 0-9.374-3.722-17.878-9.769-24.116l0.009 0.009-431.573-443.982c-15.147-15.572-36.302-25.233-59.713-25.233-22.687 0-43.256 9.073-58.275 23.789l0.014-0.014-454.329 444.836c-6.41 6.284-10.384 15.034-10.384 24.711 0 19.107 15.489 34.596 34.596 34.596 0.001 0 0.001 0 0.002 0v0z" />
<glyph unicode="&#xe915;" glyph-name="arrowleft" d="M775.964 925.333c0-0.013 0-0.029 0-0.045 0-9.415-3.773-17.95-9.889-24.173l0.005 0.005-444.836-454.293c-2.486-2.558-4.018-6.054-4.018-9.907 0-0.042 0-0.084 0.001-0.126v0.006c0.042-3.896 1.668-7.403 4.263-9.916l0.004-0.004 443.982-431.431c6.505-6.307 10.543-15.126 10.543-24.889 0-19.136-15.513-34.65-34.65-34.65-9.374 0-17.878 3.722-24.116 9.769l0.009-0.009-443.982 431.573c-15.572 15.147-25.233 36.302-25.233 59.713 0 22.687 9.073 43.256 23.789 58.275l-0.014-0.014 444.836 454.329c6.284 6.41 15.034 10.384 24.711 10.384 19.107 0 34.596-15.489 34.596-34.596 0-0.001 0-0.001 0-0.002v0z" />
<glyph unicode="&#xe916;" glyph-name="arrowup" d="M989.262 184.036c-0.013 0-0.029 0-0.045 0-9.415 0-17.95 3.773-24.173 9.889l-454.288 444.831c-2.558 2.486-6.054 4.018-9.907 4.018-0.042 0-0.084 0-0.126-0.001h0.006c-3.896-0.042-7.403-1.668-9.916-4.263l-0.004-0.004-431.396-443.982c-6.307-6.505-15.126-10.543-24.889-10.543-19.136 0-34.65 15.513-34.65 34.65 0 9.374 3.722 17.878 9.769 24.116l-0.009-0.009 431.538 443.982c15.147 15.572 36.302 25.233 59.713 25.233 22.687 0 43.256-9.073 58.275-23.789l-0.014 0.014 454.187-444.836c6.41-6.284 10.384-15.034 10.384-24.711 0-19.107-15.489-34.596-34.596-34.596-0.001 0-0.001 0-0.002 0v0z" />
<glyph unicode="&#xe917;" glyph-name="copy-open" d="M813.476 956.196h-501.796c-35.827-0.264-66.862-20.52-82.527-50.155l-0.247-0.512c-4.547-8.324-8-17.99-9.833-28.218l-0.087-0.582c-1.040-5.323-1.636-11.444-1.636-17.705 0-0.026 0-0.051 0-0.077v0.004-771.236c0-53.618 42.311-97.244 94.329-97.244h552.604c52.018 0 94.293 43.627 94.293 97.244v717.973zM813.12 910.329l96.356-99.556-105.138-14.578c-0.135-0.015-0.292-0.024-0.451-0.024-1.222 0-2.324 0.514-3.102 1.337l-0.002 0.002c-1.045 1.027-1.693 2.455-1.693 4.034 0 0.283 0.021 0.561 0.061 0.832l-0.004-0.031zM929.849 87.716c0-37.724-29.369-68.444-65.529-68.444h-552.64c-36.16 0-65.529 30.72-65.529 68.444v771.236c0 0.014 0 0.030 0 0.046 0 6.303 0.83 12.411 2.388 18.223l-0.112-0.491c2.928 11.176 8.24 20.857 15.384 28.869l-0.060-0.069c11.739 13.373 28.843 21.791 47.915 21.867h474.609l-15.787-121.493c-0.194-1.372-0.305-2.957-0.305-4.569 0-9.558 3.896-18.206 10.187-24.442l0.002-0.002c3.519-3.538 7.844-6.27 12.677-7.897l0.229-0.067c3.055-1.082 6.578-1.707 10.246-1.707 0.035 0 0.071 0 0.106 0h-0.005c0.078-0.001 0.169-0.001 0.261-0.001 1.551 0 3.075 0.117 4.564 0.342l-0.167-0.021 121.564 16.889zM760.284-9.529c-11.752-13.368-28.871-21.776-47.955-21.831h-552.579c-36.16 0-65.529 30.72-65.529 68.444v771.2c0 37.724 29.369 68.444 65.529 68.444h59.236c1.92 10.81 5.373 20.476 10.171 29.305l-0.251-0.505h-69.156c-52.018 0-94.329-43.627-94.329-97.244v-771.236c0-53.618 42.311-97.244 94.329-97.244h552.569c35.829 0.255 66.868 20.515 82.527 50.155l0.247 0.512z" />
<glyph unicode="&#xe918;" glyph-name="copy" d="M795.947 779.662l137.209 3.342c7.465 0.198 13.441 6.297 13.441 13.791 0 3.581-1.364 6.843-3.602 9.295l0.010-0.011-131.769 144.356c-2.532 2.767-6.159 4.495-10.189 4.495-7.061 0-12.882-5.304-13.698-12.145l-0.006-0.065-15.787-136.32c-0.103-0.835-0.162-1.801-0.162-2.781 0-13.235 10.729-23.964 23.964-23.964 0.207 0 0.413 0.003 0.619 0.008l-0.030-0.001zM782.222-28.907c-14.715-18.29-37.066-29.921-62.136-30.009h-561.508c-44.8-0.036-81.209 37.582-81.209 84.16v783.538c0 46.507 36.409 84.196 81.209 84.196h41.209c-11.869-14.573-19.058-33.367-19.058-53.841 0-0.109 0-0.218 0.001-0.327v0.017-783.573c0-46.507 36.302-84.196 81.209-84.196zM941.298 764.444v-679.111c0.002-0.217 0.003-0.474 0.003-0.732 0-34.636-20.932-64.383-50.835-77.281l-0.546-0.21c-8.787-3.711-19.003-5.867-29.722-5.867-0.038 0-0.077 0-0.115 0h-561.416c-44.907 0-81.209 37.689-81.209 84.196v783.396c0.032 8.618 1.329 16.922 3.715 24.75l-0.159-0.608c2.67 9.191 6.531 17.215 11.491 24.426l-0.184-0.283c14.5 21.583 38.768 35.63 66.325 35.769h469.105l-8.284-164.658c-0.115-0.809-0.181-1.743-0.181-2.693 0-11.095 8.994-20.089 20.089-20.089 0.916 0 1.819 0.061 2.702 0.18l-0.103-0.011z" />
<glyph unicode="&#xe919;" glyph-name="star-open" d="M804.089-35.556c-5.815 0.007-11.287 1.467-16.076 4.036l0.182-0.089-276.196 145.209-276.16-145.209c-4.606-2.471-10.077-3.923-15.887-3.923-18.851 0-34.133 15.282-34.133 34.133 0 2.039 0.179 4.036 0.522 5.977l-0.030-0.206 52.764 307.52-223.431 217.884c-6.377 6.203-10.334 14.866-10.334 24.453 0 17.121 12.619 31.295 29.064 33.729l0.186 0.023 308.764 44.907 138.098 279.644c5.687 11.373 17.245 19.046 30.596 19.046s24.909-7.673 30.506-18.849l0.089-0.197 138.062-279.644 308.764-44.871c16.646-2.442 29.282-16.623 29.282-33.756 0-9.603-3.97-18.279-10.358-24.476l-0.009-0.008-223.431-217.813 52.764-307.52c0.319-1.753 0.501-3.771 0.501-5.831 0-18.847-15.259-34.13-34.098-34.169h-0.004zM512 162.489c0 0 0.001 0 0.001 0 5.798 0 11.259-1.447 16.040-4.001l-0.183 0.089 258.809-136.071-49.422 288c-0.31 1.729-0.488 3.719-0.488 5.751 0 9.576 3.943 18.231 10.294 24.429l0.007 0.007 209.387 204.267-289.351 42.062c-11.327 1.701-20.703 8.761-25.582 18.47l-0.089 0.196-129.422 262.151-129.387-262.151c-4.97-9.918-14.363-16.984-25.52-18.644l-0.187-0.023-289.351-42.062 209.351-204.089c6.358-6.205 10.301-14.86 10.301-24.436 0-2.032-0.177-4.022-0.518-5.956l0.030 0.205-49.422-288.178 258.773 136.071c4.6 2.464 10.064 3.911 15.865 3.911 0.022 0 0.045 0 0.067 0h-0.003z" />
<glyph unicode="&#xe91a;" glyph-name="star" d="M521.956 926.827l148.836-301.547c1.607-3.219 4.645-5.517 8.258-6.072l0.062-0.008 332.764-48.356c5.401-0.808 9.495-5.415 9.495-10.978 0-3.11-1.28-5.922-3.342-7.936l-0.002-0.002-240.818-234.667c-2.072-2.018-3.357-4.834-3.357-7.951 0-0.658 0.057-1.302 0.167-1.929l-0.010 0.067 56.889-331.449c0.1-0.561 0.158-1.206 0.158-1.865 0-6.127-4.967-11.093-11.093-11.093-1.877 0-3.646 0.466-5.196 1.289l0.060-0.029-297.636 156.444c-1.495 0.801-3.27 1.271-5.156 1.271s-3.661-0.47-5.215-1.3l0.060 0.029-297.671-156.302c-1.49-0.794-3.258-1.26-5.136-1.26-6.127 0-11.093 4.967-11.093 11.093 0 0.659 0.057 1.304 0.168 1.931l-0.010-0.067 56.889 331.449c0.1 0.56 0.157 1.204 0.157 1.862 0 3.117-1.285 5.933-3.355 7.949l-0.002 0.002-240.818 234.667c-2.064 2.016-3.344 4.828-3.344 7.938 0 5.563 4.095 10.169 9.434 10.97l0.061 0.008 332.729 48.213c3.689 0.552 6.742 2.852 8.327 6.016l0.029 0.064 148.8 301.547c1.85 3.702 5.611 6.2 9.956 6.2s8.106-2.498 9.927-6.135l0.029-0.064z" />
<glyph unicode="&#xe91b;" glyph-name="clipboard" d="M801.031 844.551h-194.027c1.164 5.634 1.831 12.11 1.831 18.741 0 53.471-43.347 96.818-96.818 96.818s-96.818-43.347-96.818-96.818c0-6.631 0.667-13.106 1.937-19.363l-0.105 0.622h-194.062c-37.764-0.061-68.364-30.648-68.444-68.401v-771.564c0-0.011 0-0.023 0-0.036 0-37.822 30.631-68.49 68.439-68.551h578.068c37.776 0.061 68.384 30.668 68.444 68.439v771.562c0 0 0 0 0 0 0 37.822-30.631 68.49-68.439 68.551h-0.006zM463.609 863.182c0.238 26.544 21.811 47.971 48.389 47.971 26.726 0 48.391-21.665 48.391-48.391s-21.665-48.391-48.391-48.391c-20.161 0-37.443 12.329-44.716 29.86l-0.118 0.321c-2.25 5.391-3.557 11.655-3.557 18.224 0 0.143 0.001 0.286 0.002 0.428v-0.022zM824.889 4.444c-0.020-13.109-10.642-23.731-23.749-23.751h-578.171c-0.021 0-0.046 0-0.071 0-13.125 0-23.766 10.629-23.787 23.749v771.558c-0.001 0.063-0.001 0.138-0.001 0.213 0 13.137 10.65 23.787 23.787 23.787 0.025 0 0.051 0 0.076 0h86.076v-59.698h402.062v59.698h89.813c0.053 0 0.115 0.001 0.178 0.001 13.137 0 23.787-10.65 23.787-23.787 0-0.025 0-0.050 0-0.076v0.004z" />
<glyph unicode="&#xe91c;" glyph-name="creditcard-open" d="M399.040 250.133h222.542c24.546 0 44.444-19.898 44.444-44.444v-1.529c0-24.546-19.898-44.444-44.444-44.444h-222.542c-24.546 0-44.444 19.898-44.444 44.444v1.529c0 24.546 19.898 44.444 44.444 44.444zM171.093 250.133h115.84c18.871 0 34.169-15.298 34.169-34.169v-22.080c0-18.871-15.298-34.169-34.169-34.169h-115.84c-18.871 0-34.169 15.298-34.169 34.169v22.080c0 18.871 15.298 34.169 34.169 34.169zM948.018 814.222h-872.036c-37.435-0.061-67.764-30.402-67.804-67.836v-596.768c0.040-37.438 30.369-67.779 67.799-67.84h872.042c37.451 0.040 67.8 30.389 67.84 67.836v596.768c-0.040 37.451-30.389 67.8-67.836 67.84h-0.004zM965.796 149.618c-0.099-9.778-8-17.678-17.768-17.778h-872.045c-9.778 0.099-17.678 8-17.778 17.768v341.627h907.769zM965.796 648.64h-907.769v97.742c0.099 9.778 8 17.678 17.768 17.778h872.222c9.778-0.099 17.678-8 17.778-17.768v-0.009z" />
<glyph unicode="&#xe91d;" glyph-name="creditcard" d="M1020.444 752.889v-130.987h-1016.889v130.987c0 31.644 20.48 57.458 45.547 57.458h925.796c25.067 0 45.547-25.813 45.547-57.458zM3.556 493.902v-362.667c0.061-25.13 20.416-45.486 45.541-45.547h925.802c25.118 0.060 45.466 20.396 45.547 45.503v362.675zM309.333 178.204c-0.040-20.033-16.269-36.262-36.298-36.302h-122.955c-20.033 0.040-36.262 16.269-36.302 36.298v23.4c0.040 20.033 16.269 36.262 36.298 36.302h122.955c20.020-0.040 36.242-16.249 36.302-36.261v-0.006zM675.556 189.084c-0.081-26.026-21.157-47.102-47.174-47.182h-236.31c-26.026 0.081-47.102 21.157-47.182 47.174v1.644c0.081 26.026 21.157 47.102 47.174 47.182h236.31c26.013-0.081 47.081-21.136 47.182-47.137v-0.010z" />
<glyph unicode="&#xe91e;" glyph-name="chartpie-open" d="M468.836-56.676c-0.243 0-0.53-0.001-0.818-0.001-254.532 0-460.871 206.339-460.871 460.871 0 127.505 51.779 242.916 135.456 326.355l0.011 0.011c82.945 83.926 197.984 135.976 325.181 136.213h16.010l0.996-445.796h445.76v-15.964c-1.225-254.502-207.22-460.484-461.609-461.688h-0.115zM451.947 834.524c-229.889-8.879-412.887-197.39-412.887-428.642 0-118.873 48.355-226.451 126.468-304.139l0.019-0.019c77.726-77.405 184.932-125.26 303.315-125.26 231.343 0 420.003 182.749 429.492 411.761l0.028 0.859h-445.476zM1016.889 475.591h-477.084l-0.213 477.084h15.929c254.294-1.085 460.162-206.878 461.368-461.040v-0.116zM571.662 507.591h413.227c-9.859 224.145-189.215 403.34-412.515 412.912l-0.89 0.030z" />
<glyph unicode="&#xe91f;" glyph-name="chartpie" d="M477.831 416.391h475.058c0-260.587-214.436-475.058-475.058-475.058s-475.022 214.436-475.022 475.058 213.796 474.453 473.991 475.022zM537.778 474.809l-0.213 478.080h0.213c262.222 0 478.080-215.822 478.080-478.080z" />
<glyph unicode="&#xe920;" glyph-name="checkcircle-open" d="M416 161.636l-0.356 3.271c-10.114 2.785-18.798 7.934-25.746 14.83l-246.752 246.929c-10.433 10.479-16.883 24.931-16.883 40.889s6.45 30.41 16.885 40.891l49.491 49.527c10.483 10.425 24.933 16.869 40.889 16.869s30.406-6.444 40.892-16.871l157.828-157.828 315.129 315.164c11.817 11.77 28.116 19.046 46.116 19.046s34.299-7.277 46.118-19.049l39.109-39.109c11.761-11.821 19.032-28.119 19.032-46.116s-7.271-34.295-19.035-46.118l-402.45-402.415c-10.972-10.941-25.828-17.992-42.32-18.908l-0.169-0.007zM233.564 537.493c-0.015 0-0.033 0-0.050 0-5.643 0-10.753-2.282-14.457-5.974l-49.457-49.492c-3.691-3.709-5.973-8.824-5.973-14.471s2.282-10.762 5.974-14.472l246.861-246.861c3.735-3.686 8.868-5.962 14.533-5.962 0.353 0 0.705 0.009 1.054 0.026l-0.049-0.002h3.556c5.599 1.117 10.449 3.788 14.224 7.539l402.488 402.595c5.028 5.047 8.137 12.009 8.137 19.698s-3.109 14.651-8.138 19.699l-39.11 39.11c-5.047 5.028-12.009 8.137-19.698 8.137s-14.651-3.109-19.699-8.138l-341.546-341.581-184.178 184.213c-3.695 3.67-8.785 5.938-14.406 5.938-0.023 0-0.046 0-0.069 0h0.004zM512-60.444c-280.356 0-508.444 228.089-508.444 508.444s228.089 508.444 508.444 508.444 508.444-228.089 508.444-508.444-228.089-508.444-508.444-508.444zM512 919.076c-259.733 0-471.076-211.342-471.076-471.076s211.342-471.076 471.076-471.076 471.076 211.342 471.076 471.076-211.342 471.076-471.076 471.076z" />
<glyph unicode="&#xe921;" glyph-name="check" d="M996.16 653.618l-556.409-556.409c-10.77-10.745-25.35-17.675-41.539-18.588l-0.168-0.008v0.427c-0.774-0.039-1.681-0.062-2.593-0.062-14.958 0-28.504 6.041-38.334 15.815l-341.33 341.33c-9.746 9.812-15.769 23.331-15.769 38.258s6.023 28.446 15.772 38.261l-0.003-0.003 68.409 68.48c9.823 9.75 23.355 15.775 38.293 15.775s28.47-6.026 38.297-15.779l236.441-236.441 453.938 453.973c11.668 11.587 27.744 18.749 45.493 18.749s33.825-7.161 45.497-18.752l54.005-54.005c11.598-11.67 18.766-27.753 18.766-45.511s-7.168-33.841-18.77-45.514l0.003 0.003z" />
<glyph unicode="&#xe922;" glyph-name="checkcircle" d="M512 952.889c-278.842 0-504.889-226.046-504.889-504.889s226.046-504.889 504.889-504.889c278.842 0 504.889 226.046 504.889 504.889v0c0 278.842-226.046 504.889-504.889 504.889v0zM461.511 186.453c-8.035-8.013-18.911-13.18-30.986-13.861l-0.125-0.006v0.32c-0.579-0.030-1.256-0.046-1.938-0.046-11.147 0-21.243 4.5-28.571 11.782l-254.54 254.505c-7.215 7.309-11.671 17.356-11.671 28.444s4.456 21.135 11.675 28.449l51.018 51.054c7.324 7.269 17.413 11.762 28.551 11.762s21.227-4.493 28.554-11.765l176.318-176.318 338.489 338.524c8.707 8.623 20.692 13.95 33.92 13.95s25.213-5.328 33.924-13.954l40.28-40.28c8.64-8.7 13.979-20.686 13.979-33.92s-5.34-25.22-13.982-33.923l0.003 0.003z" />
<glyph unicode="&#xe923;" glyph-name="thumbsdown-open" d="M159.289 933.547h373.653c19.71-0.712 38.42-3.047 56.575-6.885l-2.139 0.379c14.851-2.959 32.762-5.274 50.985-6.443l1.247-0.064c4.499-0.198 8.72-0.668 12.85-1.401l-0.583 0.086 14.222-2.667c22.684-4.124 34.098-6.222 52.978-18.738 16.604-11.022 28.444-28.444 35.556-52.196 0.474-1.565 0.747-3.364 0.747-5.227 0-0.012 0-0.025 0-0.037v0.002-287.36c0-14.009 0.96-28.124 2.098-43.769 0.173-1.661 0.271-3.588 0.271-5.538 0-23.794-14.663-44.164-35.447-52.566l-0.38-0.136c-36.028-22.68-67.192-48.339-94.764-77.435l-0.205-0.218c-11.058-11.698-23.076-25.813-68.089-90.951-63.076-91.342-91.733-133.404-110.222-174.222-13.609-29.1-25.99-63.598-35.252-99.352l-0.944-4.292c-0.33-1.361-0.757-2.545-1.293-3.668l0.048 0.112c-10.705-22.985-33.608-38.631-60.167-38.631-28.953 0-53.563 18.596-62.538 44.496l-0.14 0.465c-0.327 0.881-0.611 1.933-0.801 3.016l-0.016 0.113c-3.147 16.41-4.948 35.283-4.948 54.578s1.8 38.168 5.242 56.462l-0.295-1.884c3.982 20.836 8.782 34.276 35.378 108.907l11.947 33.564c11.413 31.68 16.676 47.289 13.582 59.022-3.091 10.435-8.857 19.284-16.51 26.046l-0.059 0.051c-15.469 14.163-36.163 22.841-58.885 22.841-0.548 0-1.096-0.005-1.642-0.015l0.082 0.001h-186.631c-0.001 0-0.002 0-0.003 0-2.032 0-3.987 0.325-5.818 0.926l0.132-0.037c-33.789 11.051-58.748 39.942-63.939 75.262l-0.061 0.507c-0.535 3.729-0.84 8.036-0.84 12.414 0 24.684 9.708 47.1 25.513 63.639l-0.033-0.035c-14.791 13.049-31.68 34.311-34.098 64.569-2.88 36.693 16.604 71.929 48.462 91.876-10.048 13.783-16.076 31.056-16.076 49.737 0 2.141 0.079 4.264 0.235 6.366l-0.017-0.281c2.809 33.742 26.204 62.471 58.916 75.413-5.040 10.84-7.98 23.532-7.98 36.91 0 11.774 2.277 23.016 6.415 33.309l-0.213-0.601c15.147 38.116 51.449 50.667 58.56 52.8 1.596 0.496 3.431 0.781 5.333 0.782v0zM718.222 837.582c-4.409 13.689-11.022 23.502-19.591 29.191-12.516 8.284-17.778 9.209-39.111 13.12l-14.72 2.738c-2.135 0.351-4.684 0.606-7.273 0.707l-0.123 0.004c-21.207 1.348-40.714 3.878-59.802 7.582l2.913-0.471c-13.96 3.032-30.344 5.145-47.085 5.88l-0.63 0.022h-370.453c-6.649-2.489-24.604-10.667-32.284-30.151-2.134-5.606-3.37-12.090-3.37-18.862 0-14.063 5.329-26.881 14.078-36.545l-0.041 0.047c2.882-3.264 4.641-7.579 4.641-12.304 0-9.582-7.234-17.475-16.539-18.515l-0.084-0.008c-28.444-3.058-51.271-23.787-53.333-48.213-2.098-25.316 20.196-43.769 21.12-44.551 4.212-3.443 6.879-8.639 6.879-14.457 0-8.316-5.448-15.359-12.97-17.755l-0.132-0.036c-29.867-9.351-49.742-36.338-47.644-64.782 2.631-32.818 35.911-49.778 36.231-49.956 6.202-3.121 10.383-9.436 10.383-16.728 0-6.895-3.738-12.916-9.298-16.149l-0.089-0.048c-17.119-9.601-28.497-27.633-28.497-48.322 0-23.741 14.983-43.982 36.009-51.785l0.382-0.124h183.893c0.435 0.005 0.948 0.009 1.462 0.009 32.579 0 62.234-12.519 84.417-33.010l-0.084 0.077c12.742-11.495 22.207-26.394 26.973-43.264l0.156-0.647c6.044-23.218-1.671-44.871-14.436-80.782l-11.947-33.6c-25.778-72.356-30.436-85.333-33.884-103.396-2.745-14.341-4.316-30.835-4.316-47.697 0-16.367 1.48-32.388 4.313-47.937l-0.246 1.625c4.635-11.084 15.375-18.738 27.907-18.773h0.004c10.791 0.547 20.016 6.758 24.811 15.698l0.078 0.159c10.739 41.871 23.677 77.891 39.511 112.303l-1.68-4.072c20.551 45.44 53.547 93.191 113.422 179.911 46.507 67.307 59.484 82.489 71.644 95.36 30.362 31.96 64.485 59.887 101.784 83.209l2.181 1.271c1.018 0.628 2.191 1.193 3.425 1.631l0.131 0.040c7.863 2.654 13.423 9.962 13.423 18.569 0 0.975-0.071 1.934-0.209 2.871l0.013-0.106c-1.209 16.391-2.204 31.218-2.204 46.471zM860.267 917.333h83.84c41.237 0 74.667-33.429 74.667-74.667v0-326.044c0-41.237-33.429-74.667-74.667-74.667v0h-83.84c-41.237 0-74.667 33.429-74.667 74.667v0 326.044c0 41.237 33.429 74.667 74.667 74.667v0zM944.107 479.538c20.519 0.040 37.146 16.643 37.227 37.148v325.981c0 0.011 0 0.023 0 0.036 0 20.574-16.658 37.257-37.223 37.298h-83.844c-20.584-0.020-37.262-16.711-37.262-37.298 0-0.013 0-0.025 0-0.038v0.002-326.044c0.020-20.571 16.691-37.242 37.26-37.262h0.002zM869.582 866.027c23.152 0 41.92-18.768 41.92-41.92s-18.768-41.92-41.92-41.92c-23.152 0-41.92 18.768-41.92 41.92v0c0.020 23.144 18.776 41.9 41.918 41.92h0.002zM869.582 800.818c12.831 0.040 23.218 10.452 23.218 23.289 0 12.862-10.427 23.289-23.289 23.289s-23.289-10.427-23.289-23.289v0c0.020-12.866 10.455-23.289 23.324-23.289 0.013 0 0.025 0 0.038 0h-0.002z" />
<glyph unicode="&#xe924;" glyph-name="thumbsdown" d="M781.476 570.276c0-16.533 1.138-32.996 2.347-49.458 0.155-1.35 0.243-2.915 0.243-4.5 0-18.181-11.613-33.649-27.826-39.392l-0.292-0.090c-41.693-25.991-77.73-55.504-109.57-89.041l-0.225-0.239c-12.089-12.8-25.067-27.556-76.587-102.116-67.2-97.28-101.227-146.88-122.56-194.027-15.395-32.962-29.374-72.021-39.799-112.508l-1.054-4.825c-8.413-18.157-26.481-30.525-47.439-30.525-22.813 0-42.203 14.656-49.269 35.065l-0.11 0.366c-3.27 16.885-5.141 36.304-5.141 56.16s1.871 39.274 5.446 58.089l-0.305-1.929c4.622 24.213 10.916 40.356 51.058 153.173 13.618 38.258 20.196 57.813 15.324 76.587-4.406 15.316-12.756 28.327-23.888 38.297l-0.077 0.068c-20.675 18.964-48.352 30.585-78.744 30.585-0.467 0-0.933-0.003-1.398-0.008l0.071 0.001h-205.049c-33.246 10.591-56.906 41.198-56.906 77.33 0 30.26 16.594 56.644 41.178 70.549l0.403 0.21c-2.133 1.031-47.289 24.071-51.058 71.467-3.164 39.609 23.964 78.684 66.382 91.911-2.987 2.418-33.813 28.444-30.649 66.382 3.129 35.698 34.56 66.987 76.587 71.502-12.74 14.079-20.536 32.84-20.536 53.421 0 10.193 1.912 19.94 5.398 28.9l-0.186-0.544c13.511 33.991 46.756 44.587 51.093 45.973h409.6c20.408-0.909 39.637-3.377 58.327-7.307l-2.327 0.409c16.993-3.343 37.484-5.95 58.328-7.254l1.406-0.070c3.934-0.181 7.606-0.575 11.207-1.177l-0.541 0.075c37.12-7.111 45.867-6.827 66.382-20.409 15.964-10.667 25.209-27.591 30.649-45.938zM870.827 469.333h91.911c33.731 0.1 61.061 27.367 61.262 61.065v357.459c-0.101 33.794-27.469 61.161-61.253 61.262h-91.921c-33.794-0.101-61.161-27.469-61.262-61.253v-357.45c0.201-33.717 27.531-60.984 61.253-61.084h0.010zM881.031 903.111c19.735 0 35.733-15.999 35.733-35.733s-15.998-35.733-35.733-35.733c-19.735 0-35.733 15.998-35.733 35.733 0 0.062 0 0.125 0 0.187v-0.010c0 0 0 0 0 0 0 19.637 15.919 35.556 35.556 35.556 0.063 0 0.125 0 0.187 0h-0.010z" />
<glyph unicode="&#xe925;" glyph-name="thumbsup-open" d="M864.711-37.547h-373.653c-19.71 0.712-38.42 3.047-56.575 6.885l2.139-0.379c-14.851 2.959-32.762 5.274-50.985 6.443l-1.247 0.064c-4.499 0.198-8.72 0.668-12.85 1.401l0.583-0.086-14.222 2.667c-22.684 4.124-34.098 6.222-52.978 18.738-16.604 11.022-28.444 28.444-35.556 52.196-0.474 1.565-0.747 3.364-0.747 5.227 0 0.012 0 0.025 0 0.037v-0.002 287.324c0 14.009-0.96 28.124-2.098 43.769-0.173 1.661-0.271 3.588-0.271 5.538 0 23.794 14.663 44.164 35.447 52.566l0.38 0.136c36.028 22.69 67.192 48.36 94.762 77.469l0.207 0.22c11.058 11.698 23.076 25.813 68.089 90.951 63.076 91.342 91.733 133.404 110.222 174.222 13.609 29.1 25.99 63.598 35.252 99.352l0.944 4.292c0.33 1.361 0.757 2.545 1.293 3.668l-0.048-0.112c10.705 22.985 33.608 38.631 60.167 38.631 28.953 0 53.563-18.596 62.538-44.496l0.14-0.465c0.327-0.881 0.611-1.933 0.801-3.016l0.016-0.113c3.147-16.41 4.948-35.283 4.948-54.578s-1.8-38.168-5.242-56.462l0.295 1.884c-3.982-20.836-8.782-34.276-35.378-108.907l-11.947-33.564c-11.236-31.609-16.498-47.324-13.476-58.916 3.091-10.435 8.857-19.284 16.51-26.046l0.059-0.051c15.469-14.163 36.163-22.841 58.885-22.841 0.548 0 1.096 0.005 1.642 0.015l-0.082-0.001h186.916c0.001 0 0.002 0 0.003 0 2.032 0 3.987-0.325 5.818-0.926l-0.132 0.037c33.789-11.051 58.748-39.942 63.939-75.262l0.061-0.507c0.512-3.65 0.805-7.866 0.805-12.15 0-24.864-9.85-47.428-25.861-64.001l0.026 0.027c14.791-13.049 31.68-34.311 34.098-64.569 2.916-36.516-16.604-71.716-48.462-91.591 10.048-13.783 16.076-31.056 16.076-49.737 0-2.141-0.079-4.264-0.235-6.366l0.017 0.281c-2.809-33.742-26.204-62.471-58.916-75.413 5.040-10.84 7.98-23.532 7.98-36.91 0-11.774-2.277-23.016-6.415-33.309l0.213 0.601c-15.111-38.187-51.413-50.773-58.56-52.907-1.581-0.55-3.406-0.896-5.303-0.959l-0.030-0.001zM305.778 58.418c4.409-13.689 11.022-23.502 19.591-29.191 12.516-8.284 17.778-9.209 39.111-13.12l14.72-2.738c2.135-0.351 4.684-0.606 7.273-0.707l0.123-0.004c21.207-1.348 40.714-3.878 59.802-7.582l-2.913 0.471c13.96-3.032 30.344-5.145 47.085-5.88l0.63-0.022h370.453c6.649 2.489 24.604 10.667 32.284 30.151 2.134 5.606 3.37 12.090 3.37 18.862 0 14.063-5.329 26.881-14.078 36.545l0.041-0.047c-2.882 3.264-4.641 7.579-4.641 12.304 0 9.582 7.234 17.475 16.539 18.515l0.084 0.008c28.444 3.058 51.271 23.787 53.333 48.213 2.098 25.316-20.196 43.769-21.12 44.551-4.212 3.443-6.879 8.639-6.879 14.457 0 8.316 5.448 15.359 12.97 17.755l0.132 0.036c29.867 9.351 49.742 36.338 47.644 64.782-2.631 32.818-35.911 49.778-36.231 49.956-6.202 3.121-10.383 9.436-10.383 16.728 0 6.895 3.738 12.916 9.298 16.149l0.089 0.048c17.119 9.601 28.497 27.633 28.497 48.322 0 23.741-14.983 43.982-36.009 51.785l-0.382 0.124h-183.893c-0.435-0.005-0.948-0.009-1.462-0.009-32.579 0-62.234 12.519-84.417 33.010l0.084-0.077c-12.742 11.495-22.207 26.394-26.973 43.264l-0.156 0.647c-6.044 23.218 1.671 44.871 14.436 80.782l11.947 33.6c25.778 72.356 30.436 85.333 33.884 103.396 2.745 14.341 4.316 30.835 4.316 47.697 0 16.367-1.48 32.388-4.313 47.937l0.246-1.625c-4.635 11.084-15.375 18.738-27.907 18.773h-0.004c-10.791-0.547-20.016-6.758-24.811-15.698l-0.078-0.159c-10.739-41.871-23.677-77.891-39.511-112.303l1.68 4.072c-20.551-45.44-53.547-93.191-113.422-179.911-46.507-67.307-59.484-82.489-71.644-95.36-30.362-31.96-64.485-59.887-101.784-83.209l-2.181-1.271c-1.018-0.628-2.191-1.193-3.425-1.631l-0.131-0.040c-7.863-2.654-13.423-9.962-13.423-18.569 0-0.975 0.071-1.934 0.209-2.871l-0.013 0.106c1.209-16.391 2.204-31.218 2.204-46.471zM163.733-21.333h-83.84c-41.237 0-74.667 33.429-74.667 74.667v0 326.044c0 41.237 33.429 74.667 74.667 74.667v0h83.84c41.237 0 74.667-33.429 74.667-74.667v0-326.044c0-41.237-33.429-74.667-74.667-74.667v0zM79.893 416.569c-20.556-0.040-37.206-16.703-37.227-37.26v-325.975c0-0.011 0-0.023 0-0.036 0-20.574 16.658-37.257 37.223-37.298h83.844c20.584 0.020 37.262 16.711 37.262 37.298 0 0.013 0 0.025 0 0.038v-0.002 326.044c-0.020 20.571-16.691 37.242-37.26 37.262h-0.002zM154.418 29.973c-23.152 0-41.92 18.768-41.92 41.92s18.768 41.92 41.92 41.92c23.152 0 41.92-18.768 41.92-41.92v0c-0.020-23.144-18.776-41.9-41.918-41.92h-0.002zM154.418 95.182c-12.831-0.040-23.218-10.452-23.218-23.289 0-12.862 10.427-23.289 23.289-23.289s23.289 10.427 23.289 23.289v0c-0.020 12.866-10.455 23.289-23.324 23.289-0.013 0-0.025 0-0.038 0h0.002z" />
<glyph unicode="&#xe926;" glyph-name="thumbsup" d="M242.524 332.836c0 16.533-1.138 32.996-2.347 49.458-0.155 1.35-0.243 2.915-0.243 4.5 0 18.181 11.613 33.649 27.826 39.392l0.292 0.090c41.693 25.991 77.73 55.504 109.57 89.041l0.225 0.239c12.089 12.8 25.067 27.556 76.587 102.116 67.2 97.28 101.227 146.88 122.56 194.027 15.395 32.962 29.374 72.021 39.799 112.508l1.054 4.825c8.413 18.157 26.481 30.525 47.439 30.525 22.813 0 42.203-14.656 49.269-35.065l0.11-0.366c3.27-16.885 5.141-36.304 5.141-56.16s-1.871-39.274-5.446-58.089l0.305 1.929c-4.444-24.213-10.667-40.249-50.88-153.209-13.618-38.258-20.196-57.813-15.324-76.587 4.406-15.316 12.756-28.327 23.888-38.297l0.077-0.068c20.675-18.964 48.352-30.585 78.744-30.585 0.467 0 0.933 0.003 1.398 0.008l-0.071-0.001h204.907c33.246-10.591 56.906-41.198 56.906-77.33 0-30.26-16.594-56.644-41.178-70.549l-0.403-0.21c2.133-1.031 47.289-24.071 51.058-71.467 3.164-39.609-23.964-78.684-66.382-91.911 2.987-2.418 33.813-28.444 30.649-66.382-2.951-35.556-34.56-66.951-76.587-71.467 12.74-14.079 20.536-32.84 20.536-53.421 0-10.193-1.912-19.94-5.398-28.9l0.186 0.544c-13.511-34.098-46.756-44.658-51.058-45.938h-409.671c-20.373 0.871-39.595 3.303-58.282 7.195l2.318-0.404c-16.991 3.364-37.49 5.996-58.343 7.323l-1.426 0.073c-3.934 0.181-7.606 0.575-11.207 1.177l0.541-0.075c-37.12 7.111-45.867 6.827-66.382 20.409-15.964 10.667-25.209 27.591-30.649 45.938zM153.173 433.778h-91.911c-33.731-0.1-61.061-27.367-61.262-61.065v-357.459c0.101-33.794 27.469-61.161 61.253-61.262h91.921c33.794 0.101 61.161 27.469 61.262 61.253v357.45c-0.201 33.717-27.531 60.984-61.253 61.084h-0.010zM142.969 0c-19.735 0-35.733 15.999-35.733 35.733s15.998 35.733 35.733 35.733c19.735 0 35.733-15.998 35.733-35.733 0-0.062 0-0.125 0-0.187v0.010c0 0 0 0 0 0 0-19.637-15.919-35.556-35.556-35.556-0.063 0-0.125 0-0.187 0h0.010z" />
<glyph unicode="&#xe927;" glyph-name="commentwait-open" d="M368.213 4.907c-0.156 0-0.341 0-0.525 0-25.566 0-50.446 2.941-74.318 8.504l2.204-0.433-47.68 10.916 42.667 24.036c37.866 21.557 70.543 46.227 99.671 74.53l-0.116-0.112h-309.333c-44.603 0.121-80.722 36.277-80.782 80.883v606.975c0.061 44.662 36.26 80.848 80.92 80.889h862.155c44.665-0.040 80.864-36.227 80.924-80.883v-606.975c-0.061-44.662-36.26-80.848-80.92-80.889h-321.604c-21.42-26.845-46.719-49.474-75.273-67.397l-1.243-0.728c-50.087-30.967-110.815-49.317-175.828-49.317-0.323 0-0.646 0-0.968 0.001h0.050zM353.636 43.093c4.575-0.249 9.93-0.391 15.318-0.391 57.671 0 111.544 16.258 157.286 44.442l-1.298-0.744c28.354 17.746 52.222 39.779 71.442 65.488l0.487 0.681 5.689 7.68h340.48c23.76 0.020 43.017 19.266 43.058 43.018v606.937c0 0.011 0 0.023 0 0.036 0 23.775-19.253 43.053-43.018 43.093h-862.155c-23.76-0.020-43.017-19.266-43.058-43.018v-607.080c0.040-23.757 19.298-43.002 43.056-43.022h394.171l-26.844-31.253c-27.831-32.287-58.871-60.561-92.984-84.792l-1.594-1.075zM593.778 496c0-44.183-35.817-80-80-80s-80 35.817-80 80c0 44.183 35.817 80 80 80s80-35.817 80-80zM327.111 496c0-44.183-35.817-80-80-80s-80 35.817-80 80c0 44.183 35.817 80 80 80s80-35.817 80-80zM839.111 496c0-44.183-35.817-80-80-80s-80 35.817-80 80c0 44.183 35.817 80 80 80s80-35.817 80-80z" />
<glyph unicode="&#xe928;" glyph-name="commentwait" d="M946.062 882.098h-882.347c-34.979-0.101-63.31-28.419-63.431-63.384v-621.203c0.121-34.976 28.452-63.295 63.421-63.396h361.219c-38.58-44.6-83.924-82.046-134.689-111.098l-2.52-1.329c80.676-18.453 170.987-3.556 240.676 39.787 31.103 19.518 57.3 43.699 78.434 71.895l0.535 0.745h338.702c34.979 0.101 63.31 28.419 63.431 63.384v621.203c-0.121 34.976-28.452 63.295-63.421 63.396h-0.010zM257.778 416c-44.183 0-80 35.817-80 80s35.817 80 80 80c44.183 0 80-35.817 80-80v0c0-44.183-35.817-80-80-80v0zM524.444 416c-44.183 0-80 35.817-80 80s35.817 80 80 80c44.183 0 80-35.817 80-80v0c0-44.183-35.817-80-80-80v0zM769.778 416c-44.183 0-80 35.817-80 80s35.817 80 80 80c44.183 0 80-35.817 80-80v0c0-44.183-35.817-80-80-80v0z" />
<glyph unicode="&#xe929;" glyph-name="commentssquare-open" d="M751.004 29.618c-0.212-0.001-0.462-0.001-0.713-0.001-48.207 0-93.237 13.6-131.463 37.173l1.082-0.621c-22.027 13.804-40.739 30.525-56.265 49.908l-0.34 0.439h-237.76c-33.383 0-60.444 27.062-60.444 60.444v0 34.596l14.791-0.284c1.512-0.037 3.294-0.058 5.080-0.058 42.47 0 82.155 11.925 115.888 32.61l-0.968-0.552c20.917 13.103 38.53 29.357 52.725 48.316l0.359 0.501 4.373 5.867h252.231c17.307 0 31.34 14.020 31.36 31.323v357.193h222.613c33.383 0 60.444-27.062 60.444-60.444v0-449.138c0-33.383-27.062-60.444-60.444-60.444v0h-227.556c21.207-20.458 45.069-38.396 70.957-53.192l1.754-0.923 32.711-18.453-36.551-8.32c-16.018-3.774-34.411-5.938-53.308-5.938-0.196 0-0.393 0-0.589 0.001h0.031zM294.187 182.507v-5.511c0.020-17.304 14.053-31.324 31.36-31.324 0 0 0 0 0 0h252.231l4.373-5.867c14.562-19.477 32.187-35.743 52.319-48.384l0.801-0.469c32.804-20.232 72.561-32.219 115.117-32.219 3.468 0 6.918 0.080 10.348 0.237l-0.486-0.018c-25.95 18.542-48.536 39.186-68.42 62.228l-0.415 0.492-20.622 24h292.764c17.307 0 31.34 14.020 31.36 31.323v449.069c-0.020 17.312-14.049 31.34-31.358 31.36h-193.531v-328c0-33.383-27.062-60.444-60.444-60.444v0h-237.724c-15.857-19.807-34.557-36.515-55.647-49.77l-0.922-0.541c-34.543-21.355-76.092-34.642-120.616-36.289l-0.451-0.013zM263.822 231.431c-0.098 0-0.213 0-0.329 0-18.338 0-36.183 2.112-53.304 6.106l1.579-0.31-34.133 7.822 30.507 17.244c27.156 15.445 50.59 33.127 71.479 53.414l-0.084-0.081h-221.547c-31.982 0.020-57.91 25.911-57.991 57.877v434.924c0.040 32.004 25.984 57.935 57.989 57.956h617.566c32.007-0.020 57.951-25.951 57.991-57.952v-434.92c-0.040-32.004-25.984-57.935-57.989-57.956h-230.26c-15.345-19.265-33.474-35.504-53.938-48.368l-0.888-0.521c-35.85-22.127-79.302-35.237-125.817-35.237-0.292 0-0.585 0.001-0.877 0.002h0.045zM253.369 258.809c3.288-0.18 7.136-0.282 11.008-0.282 41.306 0 79.893 11.64 112.66 31.82l-0.931-0.533c20.322 12.709 37.43 28.491 51.207 46.909l0.349 0.487 4.053 5.511h243.84c17.017 0.020 30.806 13.81 30.827 30.825v434.882c-0.101 16.956-13.859 30.665-30.825 30.684h-617.566c-17.017-0.020-30.806-13.81-30.827-30.825v-434.775c0.020-17.017 13.81-30.806 30.825-30.827h282.42l-19.236-22.4c-19.943-23.127-42.184-43.381-66.626-60.74l-1.143-0.771z" />
<glyph unicode="&#xe92a;" glyph-name="commentssquare" d="M747.876 808.427v-455.787c-0.101-25.657-20.883-46.426-46.534-46.507h-248.506c-15.898-21.24-35.111-38.992-57.047-52.82l-0.873-0.514c-24.547-15.293-53.376-26.368-84.236-31.393l-1.346-0.181c-6.258-1.067-12.551-1.849-18.916-2.347-6.24-0.591-13.493-0.928-20.825-0.928-18.191 0-35.897 2.074-52.895 5.999l1.577-0.307c30.466 17.392 56.737 37.435 80.034 60.478l-0.034-0.034q5.653 5.511 11.022 11.342c3.307 3.556 6.507 7.111 9.671 10.667h-265.031c-25.672 0.081-46.462 20.87-46.542 46.534v455.795c0.081 25.672 20.87 46.462 46.534 46.542h647.404c16.639-0.045 31.226-8.788 39.459-21.92l0.114-0.195c4.374-6.932 6.969-15.366 6.969-24.406 0-0.007 0-0.014 0-0.021v0.001zM1024 631.502v-455.787c-0.101-25.657-20.883-46.426-46.534-46.507h-265.039c28.314-32.722 61.59-60.198 98.843-81.514l1.85-0.975c-15.598-3.598-33.509-5.66-51.901-5.66-46.117 0-89.206 12.965-125.821 35.449l1.047-0.598c-22.809 14.341-42.022 32.093-57.527 52.785l-0.393 0.549h-248.462c-25.66 0.080-46.441 20.85-46.542 46.497v20.17c1.521-0.035 3.313-0.054 5.11-0.054 46.1 0 89.167 12.984 125.744 35.495l-1.041-0.596c22.809 14.341 42.022 32.093 57.527 52.785l0.393 0.549h248.498c25.685 0.081 46.482 20.89 46.542 46.572v347.384h211.129c25.687-0.060 46.497-20.858 46.578-46.534v-0.008z" />
<glyph unicode="&#xe92b;" glyph-name="cart-rush" d="M354.098 402.24h-0.427l-16.391 54.116-16.036 52.871-16.391 54.080-16 52.871-16.427 54.116h0.213l16.462-54.116 16.071-52.871 16.427-54.080 16.036-52.871 16.462-54.116zM1018.596 198.756c-0.020-14.948-12.143-27.058-27.093-27.058 0 0 0 0 0 0h-488.853c-0.092 0-0.201 0-0.311 0-47.397 0-87.542 31.048-101.207 73.915l-0.207 0.752-47.253 155.876h255.609c14.944 0 27.058 12.114 27.058 27.058s-12.114 27.058-27.058 27.058h-271.502l-16.036 52.871h166.756c14.934 0 27.040 12.106 27.040 27.040s-12.106 27.040-27.040 27.040h-183.324l-16.071 52.871h255.076c14.944 0 27.058 12.114 27.058 27.058s-12.114 27.058-27.058 27.058h-271.751l-54.116 178.631h-191.218c-14.963 0-27.093 12.13-27.093 27.093s12.13 27.093 27.093 27.093h231.396l37.76-124.444h553.529c84.706-0.087 153.341-68.775 153.341-153.493 0-4.142-0.164-8.246-0.486-12.305l0.034 0.536-24.107-317.12h-536.178l10.311-33.991c6.883-21.305 26.542-36.444 49.736-36.444 0.015 0 0.029 0 0.044 0h489.029c14.963 0 27.093-12.13 27.093-27.093v0zM639.324 68.729c0-41.905-33.971-75.876-75.876-75.876s-75.876 33.971-75.876 75.876c0 41.905 33.971 75.876 75.876 75.876 0.012 0 0.025 0 0.037 0h-0.002c41.873-0.061 75.8-33.999 75.84-75.872v-0.004zM931.911 68.729c0-41.905-33.971-75.876-75.876-75.876s-75.876 33.971-75.876 75.876c0 41.905 33.971 75.876 75.876 75.876v0c41.889-0.040 75.835-33.987 75.876-75.872v-0.004zM289.102 616.178h-172.836c-14.944 0-27.058 12.114-27.058 27.058s12.114 27.058 27.058 27.058h156.444zM181.333 509.227h-144.142c-14.944 0-27.058 12.114-27.058 27.058s12.114 27.058 27.058 27.058h144.142c14.944 0 27.058-12.114 27.058-27.058s-12.114-27.058-27.058-27.058v0zM321.6 509.227h-47.182c-14.934 0-27.040 12.106-27.040 27.040s12.106 27.040 27.040 27.040h30.756zM354.098 402.24h-172.764c-14.944 0-27.058 12.114-27.058 27.058s12.114 27.058 27.058 27.058h156.444z" />
<glyph unicode="&#xe92c;" glyph-name="cart-rush-open" d="M991.502 171.698h-488.853c-0.084 0-0.184 0-0.284 0-47.404 0-87.556 31.046-101.233 73.915l-0.207 0.752-182.613 602.56h-191.218c-14.963 0-27.093 12.13-27.093 27.093s12.13 27.093 27.093 27.093h231.396l194.204-640.818c6.883-21.305 26.542-36.445 49.736-36.445 0.077 0 0.154 0 0.231 0.001h488.841c14.963 0 27.093-12.13 27.093-27.093s-12.13-27.093-27.093-27.093v0zM978.667 296.284h-592.391l-146.489 482.382h609.991c84.702-0.093 153.33-68.779 153.33-153.493 0-4.092-0.16-8.146-0.474-12.157l0.033 0.531zM426.418 350.471h502.044l20.267 267.022c0.174 2.203 0.273 4.77 0.273 7.36 0 54.842-44.455 99.3-99.295 99.307h-536.818zM639.324 68.729c0-41.905-33.971-75.876-75.876-75.876s-75.876 33.971-75.876 75.876c0 41.905 33.971 75.876 75.876 75.876 0.012 0 0.025 0 0.037 0h-0.002c41.873-0.061 75.8-33.999 75.84-75.872v-0.004zM931.911 68.729c0-41.905-33.971-75.876-75.876-75.876s-75.876 33.971-75.876 75.876c0 41.905 33.971 75.876 75.876 75.876v0c41.889-0.040 75.835-33.987 75.876-75.872v-0.004zM544 616.178h-427.733c-14.944 0-27.058 12.114-27.058 27.058s12.114 27.058 27.058 27.058h427.733c14.944 0 27.058-12.114 27.058-27.058s-12.114-27.058-27.058-27.058v0zM181.333 509.227h-144.142c-14.944 0-27.058 12.114-27.058 27.058s12.114 27.058 27.058 27.058h144.142c14.944 0 27.058-12.114 27.058-27.058s-12.114-27.058-27.058-27.058v0zM488.356 509.227h-213.938c-14.944 0-27.058 12.114-27.058 27.058s12.114 27.058 27.058 27.058h213.938c14.944 0 27.058-12.114 27.058-27.058s-12.114-27.058-27.058-27.058v0zM609.28 402.24h-427.947c-14.944 0-27.058 12.114-27.058 27.058s12.114 27.058 27.058 27.058h427.947c14.944 0 27.058-12.114 27.058-27.058s-12.114-27.058-27.058-27.058v0z" />
<glyph unicode="&#xe92d;" glyph-name="cart-open" d="M990.507 171.947h-488.356c-0.076 0-0.166 0-0.256 0-47.384 0-87.515 31.051-101.155 73.915l-0.206 0.752-182.471 601.92h-191.004c-14.944 0-27.058 12.114-27.058 27.058s12.114 27.058 27.058 27.058h231.111l193.991-640c6.882-21.285 26.524-36.409 49.699-36.409 0.028 0 0.055 0 0.083 0h488.565c14.944 0 27.058-12.114 27.058-27.058s-12.114-27.058-27.058-27.058v0zM977.778 296.462h-591.893l-146.347 481.707h609.351c84.683-0.013 153.328-68.666 153.328-153.351 0-4.079-0.159-8.121-0.472-12.12l0.033 0.529zM425.991 350.578h501.547l20.267 266.667c0.179 2.235 0.281 4.839 0.281 7.467 0 54.786-44.412 99.198-99.197 99.2h-536.356zM638.684 69.12c0-41.846-33.923-75.769-75.769-75.769s-75.769 33.923-75.769 75.769c0 41.846 33.923 75.769 75.769 75.769v0c41.83-0.040 75.728-33.939 75.769-75.765v-0.004zM930.951 69.12c0-41.846-33.923-75.769-75.769-75.769s-75.769 33.923-75.769 75.769c0 41.846 33.923 75.769 75.769 75.769v0c41.83-0.040 75.728-33.939 75.769-75.765v-0.004z" />
<glyph unicode="&#xe92e;" glyph-name="cart" d="M992.569 171.378h-489.387c-0.093 0-0.203 0-0.313 0-47.424 0-87.597 31.041-101.311 73.914l-0.208 0.753-182.827 603.307h-191.396c-14.554 0.544-26.147 12.474-26.147 27.111s11.593 26.568 26.098 27.11l0.049 0.001h231.644l194.382-641.493c6.897-21.327 26.579-36.48 49.8-36.48 0.080 0 0.16 0 0.239 0.001h489.375c14.554-0.544 26.147-12.474 26.147-27.111s-11.593-26.568-26.098-27.11l-0.049-0.001zM276.622 751.751h574.009c69.875-0.017 126.513-56.665 126.513-126.542 0-3.366-0.131-6.701-0.389-10.001l0.027 0.437-22.222-292.373h-547.769zM979.733 296.142h-593.067l-146.631 482.702h610.596c0.005 0 0.011 0 0.017 0 84.851 0 153.636-68.785 153.636-153.636 0-4.104-0.161-8.171-0.477-12.194l0.034 0.532zM426.88 350.364h502.578l20.302 267.307c0.175 2.214 0.275 4.793 0.275 7.396 0 54.93-44.486 99.469-99.396 99.555h-537.43zM612.907 68.338c0-26.961-21.856-48.818-48.818-48.818s-48.818 21.856-48.818 48.818c0 26.961 21.856 48.818 48.818 48.818s48.818-21.856 48.818-48.818zM564.089-7.609c-0.011 0-0.023 0-0.036 0-41.944 0-75.947 34.002-75.947 75.947s34.002 75.947 75.947 75.947c41.944 0 75.947-34.002 75.947-75.947v0c-0.040-41.915-33.998-75.886-75.905-75.947h-0.006zM564.089 90.027c-11.978 0-21.689-9.71-21.689-21.689s9.71-21.689 21.689-21.689c11.978 0 21.689 9.71 21.689 21.689v0c-0.020 11.97-9.719 21.669-21.687 21.689h-0.002zM905.778 68.338c0-26.961-21.856-48.818-48.818-48.818s-48.818 21.856-48.818 48.818c0 26.961 21.856 48.818 48.818 48.818s48.818-21.856 48.818-48.818zM856.889-7.609c-41.944 0-75.947 34.002-75.947 75.947s34.002 75.947 75.947 75.947c41.944 0 75.947-34.002 75.947-75.947v0c-0.040-41.928-34.019-75.906-75.943-75.947h-0.004zM856.889 90.027c-11.978 0-21.689-9.71-21.689-21.689s9.71-21.689 21.689-21.689c11.978 0 21.689 9.71 21.689 21.689v0c-0.020 11.97-9.719 21.669-21.687 21.689h-0.002z" />
<glyph unicode="&#xe92f;" glyph-name="camera" d="M873.244 813.227h-183.004c0.013 0.213 0.021 0.461 0.021 0.711s-0.008 0.499-0.023 0.745l0.002-0.034v8.64c-0.221 49.899-40.623 90.288-90.505 90.489h-175.45c-49.932-0.161-90.374-40.565-90.595-90.468v-8.661c-0.013-0.213-0.021-0.461-0.021-0.711s0.008-0.499 0.023-0.745l-0.002 0.034h-182.933c-83.141-0.201-150.493-67.516-150.755-150.624v-529.803c0.303-83.102 67.639-150.377 150.736-150.578h722.508c83.104 0.201 150.433 67.455 150.755 150.511v529.809c-0.242 83.148-67.602 150.483-150.736 150.684h-0.019zM512 160.427c-130.231 0-235.804 105.573-235.804 235.804s105.573 235.804 235.804 235.804c130.231 0 235.804-105.573 235.804-235.804v0c-0.020-130.223-105.581-235.784-235.802-235.804h-0.002zM690.311 396.231c0-98.479-79.833-178.311-178.311-178.311s-178.311 79.833-178.311 178.311c0 98.479 79.833 178.311 178.311 178.311v0c98.43-0.121 178.19-79.881 178.311-178.299v-0.012z" />
<glyph unicode="&#xe930;" glyph-name="calendar-alt-open" d="M824.889 867.556h-53.867v94.222h-146.489v-94.222h-230.293v94.222h-146.489v-94.222h-48.64c-51.161-0.081-92.613-41.533-92.693-92.686v-100.915h811.164v100.907c-0.081 51.161-41.533 92.613-92.686 92.693h-0.008zM865.28 726.258h-706.489v48.604c0.040 22.259 18.064 40.295 40.314 40.356h625.784c22.299-0.020 40.371-18.092 40.391-40.389v-0.002zM824.889-58.667h-625.778c-51.188 0.061-92.668 41.541-92.729 92.723v618.957h811.164v-618.951c-0.061-51.163-41.5-92.628-92.648-92.729h-0.010zM158.791 600.676v-566.613c0.020-22.274 18.051-40.33 40.314-40.391h625.784c22.291 0.040 40.351 18.1 40.391 40.387v566.617zM418.382 541.867h187.271v-187.271h-187.271v187.271zM184.284 541.867h187.271v-187.271h-187.271v187.271zM652.444 541.867h187.271v-187.271h-187.271v187.271zM652.444 260.942h187.271v-187.271h-187.271v187.271zM418.382 260.942h187.271v-187.271h-187.271v187.271zM184.284 260.942h187.271v-187.271h-187.271v187.271z" />
<glyph unicode="&#xe931;" glyph-name="calendar-alt" d="M920.889 786.809v-80.498h-817.778v80.498c0.141 39.6 32.246 71.655 71.852 71.716h80.504v101.476h101.511v-101.476h304.356v101.476h101.476v-101.476h86.151c39.642-0.020 71.787-32.090 71.929-71.702v-0.013zM103.111 649.92v-638.649c0.141-39.6 32.246-71.655 71.852-71.716h674.068c39.612 0.060 71.716 32.115 71.858 71.702v638.663zM356.978 46.684h-202.987v202.951h202.987zM356.978 351.111h-202.987v202.951h202.987zM610.667 46.684h-202.951v202.951h202.951zM610.667 351.111h-202.951v202.951h202.951zM864.356 46.684h-203.022v202.951h203.022zM864.356 351.111h-203.022v202.951h203.022z" />
<glyph unicode="&#xe932;" glyph-name="calendar-open" d="M824.889 864h-53.867v94.222h-146.489v-94.222h-230.293v94.222h-146.489v-94.222h-48.64c-51.161-0.081-92.613-41.533-92.693-92.686v-100.915h811.164v100.907c-0.081 51.161-41.533 92.613-92.686 92.693h-0.008zM865.28 722.702h-706.489v48.604c0.040 22.259 18.064 40.295 40.314 40.356h625.784c22.299-0.020 40.371-18.092 40.391-40.389v-0.002zM824.889-62.222h-625.778c-51.188 0.061-92.668 41.541-92.729 92.723v618.957h811.164v-618.951c-0.061-51.163-41.5-92.628-92.648-92.729h-0.010zM158.791 597.12v-566.613c0.020-22.274 18.051-40.33 40.314-40.391h625.784c22.291 0.040 40.351 18.1 40.391 40.387v566.617z" />
<glyph unicode="&#xe933;" glyph-name="calendar" d="M920.889 786.809v-80.498h-817.778v80.498c0.141 39.6 32.246 71.655 71.852 71.716h80.504v101.476h101.511v-101.476h304.356v101.476h101.476v-101.476h86.151c39.642-0.020 71.787-32.090 71.929-71.702v-0.013zM920.889 649.92v-638.649c-0.141-39.6-32.246-71.655-71.852-71.716h-674.068c-39.612 0.060-71.716 32.115-71.858 71.702v638.663z" />
<glyph unicode="&#xe934;" glyph-name="birthdaycake" d="M999.111 76.836v-138.987h-974.222v220.764c5.416 0.902 11.657 1.418 18.018 1.418 4.136 0 8.22-0.218 12.243-0.643l-0.501 0.043c44.836-4.978 86.507-28.693 130.667-53.76 7.289-4.16 14.578-8.249 21.796-12.267 43.591-24.249 98.773-50.133 157.084-50.133 0.084 0 0.183 0 0.283 0 13.382 0 26.435 1.411 39.017 4.094l-1.22-0.218c46.613 9.813 83.378 36.444 118.898 62.187 6.4 4.622 12.871 9.351 19.271 13.831 44.018 30.791 79.289 42.667 107.769 36.444 24.889-5.44 46.862-24.889 70.187-45.582 20.764-18.382 42.311-37.404 69.227-50.56 44.764-21.867 100.978-24.533 158.187-7.431 20.866 6.364 38.525 13.426 55.448 21.757l-2.15-0.957zM999.111 291.804v-138.24c-20.796-12.273-44.861-23.187-70.119-31.468l-2.628-0.746c-40.818-12.196-79.431-10.951-108.8 3.342-18.596 9.138-35.769 24.32-53.973 40.391-27.449 24.32-58.596 51.911-100.693 61.12-64.249 14.222-122.916-20.16-161.458-47.218-6.827-4.693-13.476-9.6-20.231-14.507-31.147-22.542-60.444-43.804-92.871-50.631-50.062-10.667-105.458 15.396-148.124 39.111-7.111 3.876-14.222 7.893-21.333 11.911-48.213 27.449-97.991 55.787-156.729 62.258-5.69 0.657-12.282 1.032-18.963 1.032-6.446 0-12.81-0.349-19.075-1.030l0.776 0.068v64.604c0 0.011 0 0.023 0 0.036 0 67.904 55.047 122.951 122.951 122.951 0.012 0 0.025 0 0.037 0h88.212v313.351h109.013v-313.387h122.631v313.387h108.978v-313.387h129.458v313.387h109.013v-313.387h60.978c67.904 0 122.951-55.047 122.951-122.951v0zM240.996 840.64c-9.173-30.116 2.951-69.298 32.996-78.791 24.889-7.822 52.338 8.071 65.031 30.72s15.502 39.111 12.871 64.996c-2.667 26.418-6.791 68.16-20.444 102.222-24.071-37.689-74.916-68.124-90.453-119.147zM479.431 840.64c-9.173-30.116 2.951-69.298 32.996-78.791 24.889-7.822 52.338 8.071 65.031 30.72s15.502 39.111 12.871 64.996c-2.702 26.418-6.827 68.124-20.444 102.187-24.071-37.653-74.916-68.089-90.453-119.111zM711.111 840.64c-9.173-30.116 2.951-69.298 32.996-78.791 24.889-7.822 52.338 8.071 65.031 30.72s15.502 39.111 12.871 64.996c-2.702 26.418-6.827 68.124-20.444 102.187-24.107-37.653-74.951-68.089-90.453-119.111z" />
<glyph unicode="&#xe935;" glyph-name="bookmark-open" d="M914.204-64l-404.907 239.218-399.502-233.742v929.138c0.061 49.318 40.004 89.286 89.306 89.387h625.788c49.342-0.061 89.326-40.044 89.387-89.381v-0.006zM509.44 236.231l352.213-208.107v842.489c-0.020 20.303-16.464 36.76-36.761 36.8h-625.782c-20.301-0.040-36.744-16.497-36.764-36.798v-837.442z" />
<glyph unicode="&#xe936;" glyph-name="bookmark" d="M914.738 892.444v-951.964l-405.547 239.609-399.929-233.991v946.347c0.141 37.253 30.302 67.415 67.542 67.556h670.343c37.268-0.121 67.45-30.29 67.591-67.542v-0.013z" />
<glyph unicode="&#xe937;" glyph-name="commentsquare-open" d="M368.213 4.907c-0.156 0-0.341 0-0.525 0-25.566 0-50.446 2.941-74.318 8.504l2.204-0.433-47.68 10.916 42.667 24.036c37.866 21.557 70.543 46.227 99.671 74.53l-0.116-0.112h-309.333c-44.603 0.121-80.722 36.277-80.782 80.883v606.975c0.061 44.662 36.26 80.848 80.92 80.889h862.155c44.665-0.040 80.864-36.227 80.924-80.883v-606.975c-0.061-44.662-36.26-80.848-80.92-80.889h-321.604c-21.42-26.845-46.719-49.474-75.273-67.397l-1.243-0.728c-50.087-30.967-110.815-49.317-175.828-49.317-0.323 0-0.646 0-0.968 0.001h0.050zM353.636 43.093c4.575-0.249 9.93-0.391 15.318-0.391 57.671 0 111.544 16.258 157.286 44.442l-1.298-0.744c28.354 17.746 52.222 39.779 71.442 65.488l0.487 0.681 5.689 7.68h340.48c23.76 0.020 43.017 19.266 43.058 43.018v606.937c0 0.011 0 0.023 0 0.036 0 23.775-19.253 43.053-43.018 43.093h-862.155c-23.76-0.020-43.017-19.266-43.058-43.018v-607.080c0.040-23.757 19.298-43.002 43.056-43.022h394.171l-26.844-31.253c-27.831-32.287-58.871-60.561-92.984-84.792l-1.594-1.075z" />
<glyph unicode="&#xe938;" glyph-name="commentsquare" d="M1016.604 818.702v-621.191c-0.121-34.976-28.452-63.295-63.421-63.396h-338.712c-21.668-28.941-47.865-53.122-77.777-71.94l-1.192-0.7c-69.689-43.307-160-58.24-240.676-39.787 53.285 30.38 98.629 67.827 136.659 111.777l0.55 0.65h-361.209c-34.979 0.101-63.31 28.419-63.431 63.384v621.203c0.121 34.976 28.452 63.295 63.421 63.396h882.357c34.979-0.101 63.31-28.419 63.431-63.384v-0.012z" />
<glyph unicode="&#xe939;" glyph-name="answer" d="M773.227 544c0-160.782-173.44-291.556-386.56-291.556-8.64 0-16.711 0-20.871 0-11.342 0.356-22.578 1.138-33.778 2.418s-22.756 2.88-33.956 5.013c-11.84 2.24-23.573 4.942-35.093 8.178l-7.644 2.169-5.724-5.44c-2.489-2.276-4.907-4.516-7.538-6.756-68.622-58.631-147.733-61.618-195.556-56.178 1.742 1.6 3.556 3.164 5.156 4.693 17.402 15.777 33.434 32.023 48.529 49.116l0.573 0.662c37.262 42.347 40.178 48.142 41.458 50.738l5.44 11.236-10.667 6.684c-22.228 14.329-41.402 28.608-59.569 44.037l0.796-0.659c-36.622 39.111-79.716 100.978-78.222 175.431 3.129 150.044 191.004 291.769 386.631 291.769 144.32 0 270.436-59.982 336.747-148.551 6.61-8.683 13.134-18.52 19.021-28.77l0.712-1.345c18.758-32.452 29.907-71.346 30.115-112.828v-0.061zM974.756 66.667c1.636-1.458 3.271-2.951 4.907-4.516-45.831-5.191-121.529-2.311-187.164 53.724-2.524 2.133-4.836 4.267-7.111 6.471v0c-2.38 2.29-5.62 3.701-9.19 3.701-1.285 0-2.528-0.183-3.703-0.524l0.094 0.023c-29.205-8.435-62.929-13.815-97.732-14.917l-0.65-0.016c-3.982 0-11.698 0-19.982 0-124.444 0-234.667 46.542-301.76 117.867l9.102-0.64c4.267-0.284 8.64-0.533 12.978-0.676s12.551 0 21.333 0c222.542 0 403.556 145.067 403.556 323.378-0.010 25.872-3.776 50.86-10.783 74.455l0.471-1.85c-0.316 1.079-0.498 2.319-0.498 3.602 0 7.325 5.938 13.262 13.262 13.262 1.727 0 3.377-0.33 4.89-0.931l-0.090 0.031c121.884-47.573 215.324-146.667 217.458-249.849 1.458-70.791-39.289-129.742-74.276-167.111-0.4-0.426-0.818-0.821-1.258-1.191l-0.022-0.018c-16.421-13.942-34.551-27.426-53.526-39.717l-2.048-1.243c-3.715-2.392-6.14-6.506-6.14-11.187 0-2.114 0.495-4.112 1.374-5.886l-0.035 0.077c1.209-2.489 3.982-8.213 39.787-48.427 14.959-17.122 30.227-32.751 46.317-47.497l0.438-0.396z" />
<glyph unicode="&#xe93a;" glyph-name="answer-open" d="M729.564 647.716c-5.21 11.275-10.38 20.671-16.108 29.677l0.606-1.019c-60.729 96.996-189.618 164.089-338.453 164.089-89.209 0-182.151-31.253-255.004-85.653-75.129-56.107-119.040-130.347-120.604-203.698-1.6-76.338 41.707-138.667 78.222-177.387l1.031-0.996c13.327-11.314 28.057-22.542 43.361-32.99l1.83-1.179c-5.227-6.364-13.796-16.427-27.022-31.289-13.622-15.395-27.552-29.493-42.216-42.797l-0.451-0.403c-6.649-6.116-14.222-13.084-23.573-22.222l-16.96-16.498 23.147-4.978c18.009-3.956 38.695-6.222 59.911-6.222v0c47.040 0 108.622 11.52 163.769 58.631l2.489 2.169c12.794-3.537 28.839-6.83 45.194-9.165l2.202-0.258c10.844-1.529 21.831-2.631 32.853-3.236 4.018-0.284 8.036-0.462 12.089-0.604s11.698 0 19.698 0c207.076 0 375.538 129.849 375.538 289.458-0.073 35.072-8.011 68.273-22.141 97.956l0.594-1.387zM375.609 286.898c-7.822 0-15.147 0-18.916 0q-15.396 0.462-30.613 2.169c-10.347 1.067-20.622 2.631-30.756 4.551-10.667 2.027-21.333 4.48-31.787 7.396l-7.111 1.956-5.191-4.942c-2.204-2.062-4.444-4.089-6.827-6.116-62.151-53.12-133.831-55.822-177.244-50.916q2.311 2.204 4.622 4.267c15.784 14.25 30.306 28.919 43.975 44.36l0.505 0.582c33.92 38.080 36.551 43.52 37.689 45.867l4.942 10.133-9.564 6.080c-20.173 12.988-37.572 25.933-54.057 39.923l0.723-0.599c-33.244 35.556-72.32 91.484-70.933 158.933 2.809 135.893 172.978 264.356 350.222 264.356 130.738 0 244.978-54.293 305.067-134.578 5.983-7.886 11.864-16.819 17.148-26.136l0.63-1.207c17.076-29.251 27.299-64.327 27.661-101.762l0.001-0.105c0-145.778-157.12-264.213-350.187-264.213zM969.209 105.493c-15.115 13.707-29.045 27.805-42.172 42.631l-0.494 0.569c-13.227 14.862-21.796 24.889-27.022 31.289 17.118 11.665 31.848 22.938 45.942 34.935l-0.751-0.624 1.031 0.996c36.622 38.756 79.929 101.049 78.222 177.387-1.493 73.209-45.44 147.413-120.533 203.52-53.16 39.694-117.176 67.933-186.778 79.778l-2.59 0.365c5.123-7.987 10.292-17.383 14.855-27.12l0.647-1.538c144.711-31.111 266.667-140.693 269.084-255.573 1.387-67.556-37.653-123.52-70.933-158.933-15.761-13.392-33.161-26.337-51.373-38.134l-1.961-1.19-9.564-6.080 4.942-10.133c1.138-2.347 3.769-7.787 37.689-45.867 14.174-16.024 28.696-30.692 43.999-44.514l0.481-0.428q2.311-2.098 4.622-4.267c-43.413-4.907-115.093-2.204-177.244 50.916-2.382 2.027-4.587 4.053-6.827 6.116l-5.191 4.942-7.111-1.956c-27.647-8.018-59.576-13.141-92.529-14.206l-0.626-0.016c-3.769 0-11.093 0-18.916 0-130.382 0-244.338 53.973-304.604 133.902-11.022 0.64-22.009 1.707-32.853 3.236 61.12-96 189.404-162.524 337.458-162.524 8 0 15.538 0 19.698 0 33.313 1.062 65.021 5.836 95.376 13.927l-2.932-0.665 2.489-2.169c55.147-47.076 116.693-58.631 163.769-58.631 21.216 0 41.902 2.266 61.83 6.57l-1.919-0.347 23.147 4.978-16.96 16.498c-9.209 9.316-16.747 16.427-23.396 22.364z" />
<glyph unicode="&#xe93b;" glyph-name="comment-open" d="M135.111 21.333c-0.060 0-0.131 0-0.202 0-28.713 0-56.707 3.082-83.667 8.933l2.589-0.471-31.396 6.72 23.004 22.4c12.729 12.409 22.969 21.867 32 30.187 20.592 18.582 39.538 37.707 57.37 57.84l0.656 0.755c17.991 20.196 29.582 33.813 36.693 42.453-23.229 15.828-43.22 31.132-62.347 47.42l1.014-0.842-1.422 1.316c-49.778 52.658-108.516 137.102-106.382 240.711 2.062 99.378 61.653 200.036 163.556 276.16 98.88 73.849 224.996 116.196 345.991 116.196 280.889 0 509.547-176.178 509.547-392.711s-228.587-392.747-509.547-392.747c-10.667 0-21.084 0-26.738 0-45.151 1.438-88.127 7.914-129.266 18.892l3.969-0.901-3.378-2.916c-74.809-63.751-158.329-79.396-222.044-79.396zM94.364 58.027c58.951-6.684 156.16-3.022 240.498 69.049 3.236 2.738 6.258 5.476 9.244 8.32l7.111 6.72 9.387-2.631c37.511-10.866 80.825-17.796 125.53-19.215l0.834-0.021c5.12 0 15.076 0 25.671 0 262.009 0 475.164 160.747 475.164 358.329s-213.227 358.116-475.236 358.116c-240.427 0-471.36-174.222-475.164-358.684-1.849-91.484 51.129-167.609 96.249-215.609 21.372-18.2 44.955-35.758 69.654-51.739l2.631-1.595 12.942-8.249-6.72-13.796c-1.529-3.164-5.12-10.667-51.129-62.222-19.267-21.723-39.001-41.625-59.782-60.389l-0.662-0.588z" />
<glyph unicode="&#xe93c;" glyph-name="comment" d="M1021.689 481.244c0-214.329-227.804-388.089-508.836-388.089-11.164 0-21.333 0-27.093 0-48.595 1.547-94.806 8.976-138.82 21.602l3.993-0.98c-3.342-3.164-6.72-6.222-10.24-9.209-120.889-103.111-264.818-76.8-298.347-69.618 38.827 37.831 53.333 47.218 93.902 92.622 8.391 9.422 46.009 51.733 50.133 60.267-29.256 18.846-54.51 37.678-78.413 58.048l1.009-0.839c-40.747 43.236-107.2 128.284-104.96 236.196 4.231 206.578 257.849 388.089 508.836 388.089 281.031 0 508.836-173.76 508.836-388.089z" />
<glyph unicode="&#xe93d;" glyph-name="engranajes" d="M949.547 654.756l41.564 5.547-6.578 48.427-41.422-5.547c-1.387 4.16-3.058 8.213-4.8 12.231l34.24 24.142-28.231 40-34.098-24.107c-3.129 3.022-6.507 5.902-9.92 8.676l19.271 36.978-43.484 22.542-19.2-37.049c-5.203 1.616-11.533 3.043-18.015 4.001l-0.722 0.088v44.871h-49.209v-47.218c-5.681-1.355-10.302-2.746-14.817-4.361l0.985 0.308-21.333 35.876-42.098-24.889 21.333-35.947c-3.2-2.951-6.329-5.973-9.387-9.173l-35.556 22.009-25.884-41.493 35.556-22.009c-1.313-3.214-2.709-7.368-3.884-11.613l-0.205-0.867-41.778 3.2-3.556-48.782 41.6-3.2c0.579-5.069 1.341-9.484 2.329-13.813l-0.16 0.835-38.578-16.32 19.164-44.942 38.436 16.284c2.524-3.556 5.12-7.111 7.893-10.667l-26.56-32 37.724-31.218 26.56 32c3.145-1.8 7.047-3.74 11.056-5.479l0.82-0.317-8.676-40.427 47.822-10.204 8.747 40.818h2.951c0.064 0 0.139 0 0.215 0 3.531 0 7.019 0.181 10.456 0.534l-0.431-0.036 11.022-40.284 47.289 12.729-11.022 40.284c4.541 2.215 8.29 4.345 11.9 6.672l-0.451-0.272 28.444-30.684 36.018 33.209-28.444 30.649c2.596 3.556 5.049 7.111 7.289 10.916l39.431-14.222 16.569 46.009-39.431 14.222c0.577 3.713 1.022 8.223 1.234 12.794l0.011 0.29zM819.876 592.533c-0.011 0-0.023 0-0.036 0-38.292 0-69.333 31.042-69.333 69.333s31.042 69.333 69.333 69.333c38.292 0 69.333-31.042 69.333-69.333 0-0.012 0-0.025 0-0.037v0.002c-0.020-38.257-31.038-69.262-69.298-69.262v0zM614.329 412.018l84.764 11.307-13.44 98.702-84.409-11.307c-2.844 8.462-6.222 16.782-9.742 24.889l69.831 48.924-57.636 81.6-69.724-48.924c-6.364 6.187-13.262 11.982-20.196 17.778l39.289 75.413-88.64 45.796-39.289-75.413c-10.615 3.292-23.529 6.196-36.753 8.143l-1.469 0.177v91.449h-100.018v-96.249c-11.512-2.783-20.857-5.625-29.988-8.916l2.006 0.631-43.698 73.102-85.831-50.667 43.52-73.316c-6.542-6.009-12.942-12.16-19.129-18.702l-72.356 44.871-52.764-84.622 72.391-44.836c-2.671-6.545-5.512-15.007-7.903-23.655l-0.417-1.767-85.12 6.507-7.609-99.413 84.8-6.542c1.173-10.341 2.723-19.353 4.735-28.19l-0.326 1.701-78.542-33.209 39.111-91.662 78.222 33.209c5.12-7.431 10.453-14.684 16.107-21.547l-54.009-65.529 77.013-63.36 54.151 65.493c6.379-3.673 14.285-7.635 22.409-11.191l1.662-0.649-17.778-83.022 97.742-20.8 17.778 83.2c1.956 0 3.911 0 6.044 0 0.081 0 0.177 0 0.273 0 7.254 0 14.421 0.375 21.482 1.105l-0.884-0.074 22.471-82.098 96.284 26.311-22.364 81.778c9.262 4.528 16.911 8.881 24.275 13.638l-0.915-0.554 58.062-62.542 73.28 67.556-58.062 62.507c5.298 7.111 10.276 14.684 14.862 22.258l80.356-28.764 33.813 93.76-80.498 29.013c1.24 7.51 2.23 16.698 2.743 26.013l0.030 0.69zM349.973 285.191c-0.032 0-0.069 0-0.107 0-78.076 0-141.369 63.293-141.369 141.369s63.293 141.369 141.369 141.369c78.038 0 141.308-63.232 141.369-141.256v-0.006c0-0.053 0-0.115 0-0.178 0-78.024-63.241-141.278-141.26-141.298h-0.002zM912.676 275.947l30.471 4.053-4.836 35.556-30.329-4.053c-1.031 3.058-2.24 6.044-3.556 8.96l25.067 17.564-20.693 29.333-24.889-17.564c-2.276 2.204-4.764 4.302-7.111 6.329l14.222 27.093-32 16.498-14.222-27.093c-3.811 1.182-8.448 2.224-13.197 2.923l-0.528 0.064v32.889h-36.089v-34.596c-4.139-1.003-7.5-2.028-10.782-3.214l0.72 0.227-15.716 26.276-30.862-18.204 15.644-26.347c-2.347-2.169-4.658-4.373-6.862-6.72l-26.027 16.107-18.951-30.4 26.027-16.107c-0.959-2.353-1.979-5.394-2.837-8.503l-0.149-0.635-30.613 2.347-2.738-35.556 30.471-2.347c0.427-3.722 0.99-6.964 1.718-10.142l-0.118 0.613-28.16-11.947 14.222-32.924 28.124 11.947c1.849-2.667 3.733-5.262 5.796-7.751l-19.449-23.538 27.662-22.791 19.449 23.538c2.309-1.326 5.171-2.754 8.112-4.034l0.6-0.233-6.507-30.009 35.058-7.502 6.436 29.902h2.169c2.647 0.004 5.256 0.146 7.826 0.419l-0.324-0.028 8.071-29.511 34.596 9.458-8.071 29.511c3.328 1.624 6.076 3.186 8.721 4.893l-0.33-0.199 20.978-22.72 26.347 24.32-20.871 22.471c1.92 2.524 3.556 5.262 5.333 8l28.871-10.347 12.16 33.707-28.871 10.347c0.401 2.78 0.695 6.121 0.813 9.506l0.005 0.165zM817.778 230.364c-0.011 0-0.023 0-0.036 0-28.061 0-50.809 22.748-50.809 50.809s22.748 50.809 50.809 50.809c28.061 0 50.809-22.748 50.809-50.809 0-0.013 0-0.025 0-0.038v0.002c0-28.041-22.732-50.773-50.773-50.773v0z" />
<glyph unicode="&#xe93e;" glyph-name="engranajes-open" d="M354.169 78.222l-123.058 26.418 17.351 81.422-0.64 0.32-53.084-64.178-97.244 80.071 53.156 64.391-0.356 0.462-76.729-32.569-49.422 115.698 76.836 32.533v0.533l-83.2 6.436 9.6 125.582 83.449-6.4v0.462l-71.111 43.982 66.951 106.809 71.111-44.018 0.32 0.32-42.987 71.964 108.373 64 42.951-71.716 3.556 0.996v94.542h126.009v-88.889q6.187-1.209 12.018-2.596l38.542 73.956 111.929-57.956-38.542-73.991 0.391-0.32 68.373 47.964 72.604-103.111-68.444-48v-0.391l82.773 11.093 16.996-124.729-82.88-11.093v-0.498l78.862-28.267-42.667-118.436-78.827 28.231-0.249-0.391 56.889-61.262-92.444-85.333-56.889 61.227-0.462-0.249 22.044-80.533-121.564-33.209-22.080 80.498h-0.676zM268.836 128.96l61.049-13.049 16.249 75.591h18.667c6.376 0.002 12.672 0.338 18.873 0.991l-0.775-0.066 13.404 1.351 20.587-75.2 59.982 16.533-20.516 74.667 11.84 5.76c8.101 3.956 14.796 7.765 21.239 11.93l-0.795-0.481 11.164 7.111 53.084-57.173 45.831 42.311-53.013 57.102 7.964 10.667c4.196 5.582 8.498 12.053 13.156 19.698l6.72 11.093 73.173-26.204 21.156 58.667-73.067 26.169 1.813 12.8c0.996 7.111 2.027 15.324 2.382 23.609l0.533 13.369 77.511 10.347-8.604 61.867-77.013-10.311-4.16 12.444c-2.204 6.613-4.978 13.653-8.676 22.222l-5.191 11.911 63.431 44.516-35.947 51.058-63.502-44.658-9.422 9.138c-5.867 5.689-12.409 11.164-18.062 15.787l-9.991 8.142 35.556 68.551-55.467 28.8-35.733-68.907-12.587 3.769c-9.407 2.911-20.855 5.48-32.579 7.202l-1.305 0.158-13.547 2.027v84.267h-62.649v-87.538l-12.267-2.773c-10.222-2.462-18.534-4.988-26.654-7.916l1.766 0.556-12.089-4.48-39.858 66.631-53.724-31.716 39.573-66.631-9.493-8.711c-6.4-5.867-12.053-11.378-17.244-16.889l-8.889-9.387-65.92 40.818-32.996-52.907 65.991-40.924-4.693-12.267c-2.36-5.781-4.861-13.237-6.962-20.859l-0.362-1.541-3.556-12.764-77.724 5.973-4.764-62.222 77.227-5.938 1.529-12.978c1.051-9.153 2.425-17.111 4.202-24.917l-0.291 1.521 2.916-12.942-71.573-30.329 24.462-57.316 71.111 30.222 7.36-10.667c5.191-7.467 9.884-13.796 14.4-19.307l8.32-10.133-49.173-59.627 48.178-39.68 49.422 59.804 11.556-6.4c5.665-3.256 12.673-6.754 19.876-9.888l1.457-0.565 12.053-5.12zM364.587 276.764c-82.475 0-149.333 66.859-149.333 149.333s66.859 149.333 149.333 149.333c82.475 0 149.333-66.859 149.333-149.333v0c-0.121-82.426-66.908-149.212-149.322-149.333h-0.012zM364.587 543.751c-0.032 0-0.069 0-0.107 0-64.959 0-117.618-52.659-117.618-117.618s52.659-117.618 117.618-117.618c64.933 0 117.577 52.619 117.618 117.543v0.004c-0.081 64.903-52.622 117.507-117.494 117.689h-0.018zM967.324 654.756l41.564 5.547-6.578 48.427-41.422-5.547c-1.387 4.16-3.058 8.213-4.8 12.231l34.24 24.142-28.231 40-34.098-24.107c-3.129 3.022-6.507 5.902-9.92 8.676l19.271 36.978-43.484 22.542-19.2-37.049c-5.203 1.616-11.533 3.043-18.015 4.001l-0.722 0.088v44.871h-49.209v-47.218c-5.681-1.355-10.302-2.746-14.817-4.361l0.985 0.308-21.333 35.876-42.098-24.889 21.333-35.947c-3.2-2.951-6.329-5.973-9.387-9.173l-35.556 22.009-25.884-41.493 35.556-22.009c-1.313-3.214-2.709-7.368-3.884-11.613l-0.205-0.867-41.778 3.2-3.556-48.782 41.6-3.2c0.579-5.069 1.341-9.484 2.329-13.813l-0.16 0.835-38.578-16.32 19.164-44.942 38.436 16.284c2.524-3.556 5.12-7.111 7.893-10.667l-26.56-32 37.724-31.218 26.56 32c3.145-1.8 7.047-3.74 11.056-5.479l0.82-0.317-8.676-40.427 47.822-10.204 8.747 40.818h2.951c0.064 0 0.139 0 0.215 0 3.531 0 7.019 0.181 10.456 0.534l-0.431-0.036 11.022-40.284 47.289 12.729-11.022 40.284c4.541 2.215 8.29 4.345 11.9 6.672l-0.451-0.272 28.444-30.684 36.018 33.209-28.444 30.649c2.596 3.556 5.049 7.111 7.289 10.916l39.431-14.222 16.569 46.009-39.431 14.222c0.577 3.713 1.022 8.223 1.234 12.794l0.011 0.29zM837.653 592.533c-0.011 0-0.023 0-0.036 0-38.292 0-69.333 31.042-69.333 69.333s31.042 69.333 69.333 69.333c38.292 0 69.333-31.042 69.333-69.333 0-0.012 0-0.025 0-0.037v0.002c-0.020-38.257-31.038-69.262-69.298-69.262v0zM930.453 275.947l30.471 4.053-4.836 35.556-30.329-4.053c-1.031 3.058-2.24 6.044-3.556 8.96l25.067 17.564-20.693 29.333-24.889-17.564c-2.276 2.204-4.764 4.302-7.111 6.329l14.222 27.093-32 16.498-14.222-27.093c-3.811 1.182-8.448 2.224-13.197 2.923l-0.528 0.064v32.889h-36.089v-34.596c-4.139-1.003-7.5-2.028-10.782-3.214l0.72 0.227-15.716 26.276-30.862-18.204 15.644-26.347c-2.347-2.169-4.658-4.373-6.862-6.72l-26.027 16.107-18.951-30.4 26.027-16.107c-0.959-2.353-1.979-5.394-2.837-8.503l-0.149-0.635-30.613 2.347-2.738-35.556 30.471-2.347c0.427-3.722 0.99-6.964 1.718-10.142l-0.118 0.613-28.16-11.947 14.222-32.924 28.124 11.947c1.849-2.667 3.733-5.262 5.796-7.751l-19.449-23.538 27.662-22.791 19.449 23.538c2.309-1.326 5.171-2.754 8.112-4.034l0.6-0.233-6.507-30.009 35.058-7.502 6.436 29.902h2.169c2.647 0.004 5.256 0.146 7.826 0.419l-0.324-0.028 8.071-29.511 34.596 9.458-8.071 29.511c3.328 1.624 6.076 3.186 8.721 4.893l-0.33-0.199 20.978-22.72 26.347 24.32-20.871 22.471c1.92 2.524 3.556 5.262 5.333 8l28.871-10.347 12.16 33.707-28.871 10.347c0.401 2.78 0.695 6.121 0.813 9.506l0.005 0.165zM835.556 230.364c-0.011 0-0.023 0-0.036 0-28.061 0-50.809 22.748-50.809 50.809s22.748 50.809 50.809 50.809c28.061 0 50.809-22.748 50.809-50.809 0-0.013 0-0.025 0-0.038v0.002c0-28.041-22.732-50.773-50.773-50.773v0z" />
<glyph unicode="&#xe93f;" glyph-name="bell-slash-open" d="M973.582 265.458c-8.64 36.978-31.68 65.387-51.947 90.489-8.74 10.249-17.308 21.552-25.219 33.334l-0.843 1.333c-28.196 44.622-33.422 100.48-39.111 159.609-5.191 55.68-10.667 113.244-35.556 166.436-40.853 86.507-130.347 144.782-225.493 148.16 0 0.498 0 0.96 0 1.493 0.071 51.733-37.689 93.689-84.267 93.689s-84.48-41.956-84.48-93.689c0-0.533 0-1.067 0-1.564-65.684-3.366-124.495-30.308-168.673-72.454l0.104 0.098 48.391-48.391c36.196 33.564 85.333 53.796 134.329 52.836h1.6l10.062 0.782h1.316c17.189 1.316 37.227 2.067 57.44 2.067s40.252-0.75 60.088-2.225l-2.648 0.158c3.556-0.249 7.289-0.498 10.951-0.818h3.556c72.711 1.387 145.067-43.52 176.142-109.262 19.947-42.347 24.569-91.591 29.476-143.716 6.009-64.533 12.267-131.236 49.138-189.618 10.326-15.66 20.431-29.132 31.259-41.972l-0.539 0.657c17.244-21.333 33.493-41.387 38.578-63.111 0.96-4.276 1.51-9.186 1.51-14.225 0-18.841-7.689-35.886-20.1-48.169l-0.006-0.006c-4.786-3.9-10.483-6.888-16.708-8.6l-0.323-0.076 50.951-50.702c4.937 3.203 9.236 6.599 13.197 10.35l-0.041-0.039c25.388 24.749 41.136 59.284 41.136 97.496 0 10.509-1.191 20.74-3.446 30.565l0.177-0.915zM697.458 172.053h-487.68c-27.484 0.462-65.92 7.111-74.667 15.502-12.401 12.281-20.079 29.311-20.079 48.134 0 5.054 0.553 9.978 1.603 14.716l-0.084-0.45c5.084 21.724 21.333 41.849 38.578 63.111 10.301 12.155 20.393 25.581 29.69 39.581l0.995 1.593c37.12 58.204 43.378 125.084 49.387 189.76 2.596 27.876 5.12 54.898 9.956 80.498l-56.142 56c-13.44-42.667-17.778-87.004-21.653-130.276-5.547-59.129-10.667-114.987-39.111-159.609-8.754-13.115-17.322-24.418-26.496-35.189l0.434 0.523c-20.267-25.102-43.307-53.333-51.947-90.489-2.086-8.929-3.281-19.182-3.281-29.714 0-38.211 15.738-72.746 41.085-97.477l0.028-0.027c32-30.684 100.622-34.027 120.889-34.347h556.658zM648.924 68.018c0-72.996-61.333-132.018-136.924-132.018s-136.924 59.058-136.924 132.018zM963.804 46.471l-50.276-50.276-855.111 855.111 50.276 50.276 855.111-855.111z" />
<glyph unicode="&#xe940;" glyph-name="bell-open" d="M973.582 265.458c-8.64 36.978-31.68 65.387-51.982 90.489-8.718 10.244-17.276 21.546-25.179 33.325l-0.848 1.342c-28.196 44.622-33.422 100.444-39.111 159.609-5.191 55.716-10.667 113.244-35.556 166.436-40.853 86.542-130.347 144.782-225.493 148.16 0 0.498 0 0.996 0 1.493 0.071 51.733-37.689 93.689-84.267 93.689s-84.48-41.956-84.48-93.689c0-0.498 0-1.067 0-1.564-94.578-3.982-183.182-62.009-223.787-148.089-25.138-53.333-30.507-110.756-35.556-166.436-5.547-59.129-10.667-114.987-39.111-159.609-8.751-13.12-17.308-24.423-26.467-35.198l0.441 0.532c-20.302-25.102-43.342-53.333-51.982-90.489-2.082-8.921-3.275-19.164-3.275-29.686 0-38.225 15.749-72.772 41.113-97.505l0.028-0.028c32-30.684 100.622-34.027 120.889-34.347h623.040c11.52 0.213 70.72 2.88 103.609 34.311 25.452 24.758 41.243 59.335 41.243 97.601 0 10.51-1.191 20.742-3.446 30.568l0.177-0.915zM888.64 187.52c-9.813-9.387-39.716-15.004-57.6-15.467h-621.262c-27.484 0.427-65.956 7.111-74.667 15.467-12.42 12.289-20.112 29.337-20.112 48.181 0 5.050 0.552 9.97 1.6 14.705l-0.084-0.45c5.084 21.724 21.333 41.849 38.578 63.076 10.312 12.158 20.404 25.584 29.695 39.588l0.989 1.585c37.156 58.418 43.413 125.12 49.422 189.796 4.871 52.124 9.458 101.369 29.476 143.716 31.004 65.707 103.467 110.649 176.142 109.227h1.6l10.062 0.782h1.316c17.189 1.319 37.227 2.071 57.44 2.071s40.25-0.752 60.085-2.229l-2.645 0.158c3.556-0.249 7.324-0.498 10.987-0.853h3.449c72.711 1.387 145.067-43.52 176.142-109.227 19.982-42.347 24.569-91.627 29.476-143.716 6.044-64.498 12.302-131.236 49.138-189.618 10.336-15.695 20.464-29.203 31.325-42.071l-0.533 0.649c17.209-21.333 33.493-41.351 38.578-63.076 0.944-4.241 1.485-9.111 1.485-14.108 0-18.829-7.679-35.864-20.075-48.145l-0.005-0.005zM648.924 68.018c0-72.996-61.333-132.018-136.924-132.018s-136.924 59.058-136.924 132.018z" />
<glyph unicode="&#xe941;" glyph-name="bell-slash" d="M196.089 630.756l529.244-529.067h-533.084s-77.049 1.138-103.36 26.311c-20.019 19.584-32.43 46.872-32.43 77.060 0 8.224 0.921 16.232 2.666 23.928l-0.138-0.722c11.058 47.147 52.018 80.356 77.938 121.28 51.52 81.636 39.431 186.702 59.164 281.209zM935.111 128c-9.422-8.996-22.969-14.933-36.551-18.809l-643.911 643.982c45.333 50.489 112.356 81.778 180.373 81.244-2.617 8.475-4.125 18.218-4.125 28.312 0 0.046 0 0.093 0 0.139v-0.007c0 49.707 36.302 90.027 81.102 90.027s81.031-40.32 81.031-90.062c0-0.039 0-0.086 0-0.132 0-10.095-1.507-19.837-4.309-29.015l0.185 0.703c90.204 0.782 178.667-54.578 217.173-136.213 51.342-108.764 16.818-246.933 81.031-348.444 25.849-40.924 66.916-74.133 77.902-121.28 1.645-7.045 2.588-15.135 2.588-23.446 0-30.179-12.438-57.454-32.468-76.977l-0.023-0.022zM642.596 61.156c0-67.2-56.462-121.6-126.116-121.6s-126.116 54.4-126.116 121.6zM949.582 18.027l-50.276-50.276-855.111 855.111 50.276 50.276 855.111-855.111z" />
<glyph unicode="&#xe942;" glyph-name="bell" d="M935.111 135.111c-26.382-25.209-85.333-26.347-85.333-26.347h-657.529s-77.049 1.173-103.36 26.347c-20.007 19.566-32.412 46.833-32.412 76.997 0 8.247 0.927 16.277 2.683 23.992l-0.138-0.722c11.022 47.147 52.018 80.356 77.902 121.28 64.213 101.689 29.689 239.858 81.031 348.444 38.507 81.778 126.933 136.996 217.138 136.213-2.617 8.475-4.125 18.218-4.125 28.312 0 0.046 0 0.093 0 0.139v-0.007c-0.071 49.92 36.231 90.24 81.031 90.24s81.067-40.32 81.067-90.062c0-0.039 0-0.086 0-0.132 0-10.095-1.507-19.837-4.309-29.015l0.185 0.703c90.204 0.782 178.631-54.578 217.173-136.213 51.342-108.764 16.818-246.933 81.031-348.444 25.849-40.924 66.88-74.133 77.902-121.28 1.63-7.020 2.565-15.080 2.565-23.359 0-30.209-12.442-57.512-32.48-77.064l-0.022-0.021zM642.596 68.267c0-67.2-56.462-121.6-126.116-121.6s-126.116 54.4-126.116 121.6z" />
<glyph unicode="&#xe943;" glyph-name="apple-open" d="M503.929 707.911l-0.604 15.787c-0.122 2.882-0.192 6.262-0.192 9.66 0 36.031 7.85 70.228 21.934 100.974l-0.621-1.514c11.482 26.208 27.065 48.556 46.188 67.309l0.034 0.033c40.284 39.111 87.929 52.516 120.889 56.889l15.858 2.133 2.169-15.822c1.211-8.37 1.903-18.035 1.903-27.861 0-16.667-1.99-32.87-5.744-48.384l0.286 1.4c-6.791-27.052-17.81-50.796-32.465-71.816l0.465 0.705c-9.813-14.222-39.609-57.742-96.498-78.222-17.084-6.308-36.814-10.176-57.382-10.663l-0.218-0.004zM679.111 922.489c-33.773-7.217-63.058-23.166-86.328-45.364l0.070 0.067c-16.28-16.074-29.526-35.176-38.833-56.397l-0.456-1.167c-10.556-22.876-17.186-49.532-18.298-77.606l-0.013-0.403c11.667 1.586 22.178 4.248 32.188 7.946l-1.041-0.337c47.218 17.067 71.751 52.836 80.996 66.311 12.071 17.266 21.438 37.45 26.929 59.177l0.271 1.267c2.953 11.951 4.646 25.67 4.646 39.786 0 2.364-0.047 4.716-0.142 7.057l0.011-0.336zM693.867-64c-17.173 0-32.782 3.556-51.698 8.107-13.312 3.075-24.776 6.824-35.78 11.45l1.433-0.535c-9.596 4.068-21.048 7.737-32.88 10.402l-1.396 0.264c-16.167 4.22-34.752 6.703-53.896 6.826h-0.077c-11.946-0.196-23.477-1.404-34.678-3.542l1.256 0.199c-13.534-2.468-25.598-6.415-36.873-11.758l0.891 0.38c-10.745-4.961-23.61-9.612-36.907-13.208l-1.777-0.409c-17.564-4.658-35.556-9.458-59.449-7.716-17.83 1.513-34.28 5.815-49.457 12.478l0.995-0.39c-23.525 10.488-43.404 25.241-59.466 43.441l-0.16 0.185c-39.431 42.88-68.622 92.053-86.151 125.724-8.676 16.676-24.391 49.778-28.836 64h-0.213c-25.636 70.151-54.862 149.831-44.267 256.142 3.556 35.556 11.84 118.684 68.48 189.049 11.449 14.187 41.849 52.018 92.978 73.351 16.924 7.181 36.592 12.627 57.108 15.404l1.204 0.133c8.68 1.035 18.733 1.625 28.924 1.625s20.244-0.591 30.127-1.739l-1.203 0.114c18.098-1.849 27.413-4.302 52.338-10.667 13.262-3.556 31.431-8.249 58.204-14.827 19.307-4.729 32-7.609 49.778-6.791 13.198 0.8 25.543 3.173 37.26 6.945l-1.065-0.296c31.716 8.818 54.436 16.142 69.476 20.978 5.653 1.813 10.098 3.236 13.333 4.231 40.071 11.982 84.516 10.667 132.018-3.556 63.076-19.093 104.107-60.836 127.431-92.444l9.351-12.942-12.551-9.529c-19.593-14.81-36.532-31.635-50.987-50.467l-0.462-0.626c-20.636-25.483-35.966-56.139-43.79-89.68l-0.299-1.52c-2.958-13.064-4.653-28.067-4.653-43.467s1.695-30.402 4.908-44.833l-0.256 1.367c9.173-39.36 28.8-65.209 40.498-80.676 11.068-15.552 24.214-28.744 39.215-39.516l0.501-0.342c11.342-7.976 24.393-14.674 38.337-19.444l1.094-0.325 15.964-5.333-6.187-15.573c-19.888-50.228-40.871-92.57-64.846-132.928l2.339 4.253c-33.351-56.889-55.040-79.502-71.893-94.258-19.662-17.209-49.422-43.2-92.089-47.218-3.804-0.498-7.538-0.498-11.2-0.498zM521.529 4.587c21.206-0.337 41.604-3.105 61.142-8.037l-1.835 0.392c14.992-3.386 27.935-7.566 40.353-12.751l-1.597 0.591c8.34-3.58 18.321-6.852 28.628-9.276l1.274-0.253c21.653-5.084 35.947-8.427 52.658-6.862 32.427 3.058 55.502 23.253 74.062 39.467 14.898 13.049 34.311 33.493 65.351 86.364 18.198 30.321 36.386 66.231 52.108 103.438l2.185 5.825c-12.096 5.336-22.454 11.218-32.138 17.998l0.6-0.398c-18.318 13.061-33.862 28.559-46.565 46.236l-0.404 0.591c-12.373 16.32-35.556 46.72-46.222 92.729-3.428 15.159-5.392 32.568-5.392 50.436s1.964 35.277 5.688 52.022l-0.296-1.587c9.065 39.897 26.389 74.811 50.159 104.312l-0.382-0.489c13.391 17.587 28.032 33.029 44.169 46.765l0.417 0.347c-26.017 31.733-60.481 55.643-99.963 68.378l-1.512 0.422c-41.387 12.551-79.609 13.76-113.6 3.556-3.058-0.924-7.111-2.276-12.693-4.018-15.289-4.907-38.364-12.338-70.684-21.333-12.735-4.069-27.499-6.849-42.765-7.762l-0.506-0.024c-23.111-1.067-40.427 3.164-58.738 7.68-27.022 6.649-45.298 11.449-58.667 14.933-23.822 6.258-32 8.356-47.502 9.956-7.581 0.901-16.362 1.415-25.262 1.415s-17.681-0.514-26.314-1.514l1.052 0.099c-18.643-2.483-35.53-7.145-51.382-13.788l1.319 0.491c-43.662-18.24-69.404-50.24-80.498-63.893-50.56-63.040-58.204-139.484-61.476-172.16-9.884-99.022 17.778-175.076 42.453-242.133v0c0.498-1.316 37.902-101.902 108.729-178.88 13.249-15.098 29.487-27.225 47.829-35.519l0.882-0.357c11.182-4.97 24.154-8.385 37.764-9.568l0.459-0.032c18.382-1.351 32.533 2.382 48.924 6.72 13.361 3.559 24.771 7.699 35.706 12.696l-1.395-0.571c12.304 5.827 26.607 10.487 41.571 13.271l1.096 0.169c11.543 2.247 24.926 3.648 38.595 3.873l0.196 0.003z" />
<glyph unicode="&#xe944;" glyph-name="windows10" d="M3.556 817.067l408.889 55.573v-389.084h-408.889zM3.556 82.489l408.889-55.573v389.084h-408.889zM480.036 880.569l543.964 79.431v-476.48h-543.964v397.049zM480.036 18.951l543.964-79.396v476.48h-543.964v-397.084z" />
<glyph unicode="&#xe945;" glyph-name="apple" d="M505.564 710.116c21.834 0.583 42.529 4.691 61.787 11.774l-1.342-0.432c58.738 21.333 89.991 65.458 102.222 83.307 15.133 21.63 26.866 46.922 33.725 74.152l0.337 1.581c3.743 15.143 5.89 32.528 5.89 50.414 0 10.258-0.706 20.351-2.073 30.233l0.13-1.144c-24.889-3.378-81.422-14.756-128.747-60.444-20.386-20.081-36.976-43.949-48.638-70.473l-0.571-1.456c-14.489-31.394-22.939-68.125-22.939-106.831 0-3.756 0.080-7.494 0.237-11.211l-0.018 0.531zM910.684 626.809c-16.498 22.4-56.889 70.258-124.942 90.88-14.933 4.516-70.258 21.333-128.747 3.769-12.089-3.556-40.924-13.653-87.076-26.489-12.251-3.95-26.453-6.653-41.143-7.549l-0.493-0.024c-21.333-0.996-36.729 2.631-56.889 7.573-79.573 19.556-86.222 23.716-113.6 26.489-8.538 1.050-18.421 1.649-28.444 1.649s-19.907-0.599-29.617-1.763l1.172 0.114c-21.191-2.843-40.379-8.151-58.392-15.706l1.503 0.559c-48.462-20.338-77.618-55.644-90.596-71.929-55.111-68.48-64-149.333-68.16-189.333-10.667-107.627 18.916-188.764 45.44-261.262 0 0 39.751-108.729 117.333-193.102 15.502-17.513 34.461-31.587 55.851-41.218l1.038-0.418c13.298-5.903 28.724-9.94 44.911-11.306l0.529-0.036c21.653-1.6 37.724 2.524 56.889 7.573 38.293 10.133 44.089 19.947 79.502 26.489 11.278 2.202 24.344 3.565 37.692 3.767l0.175 0.002c21.488-0.040 42.312-2.8 62.172-7.954l-1.727 0.381c36.978-8.604 38.791-14.933 71.929-22.72 23.36-5.476 40.356-9.493 60.444-7.573 38.578 3.556 65.458 26.524 87.076 45.44 15.609 13.653 37.298 35.556 71.929 94.649 22.3 37.197 43.905 80.804 62.1 126.148l2.256 6.367c-17.33 5.863-32.369 13.56-46.022 23.105l0.582-0.385c-17.729 12.672-32.768 27.711-45.047 44.862l-0.393 0.578c-13.867 18.276-35.2 47.040-45.44 90.88-3.362 14.795-5.289 31.786-5.289 49.227s1.927 34.432 5.579 50.771l-0.29-1.545c10.667 50.738 35.556 84.124 49.209 102.222 16.53 21.633 35.295 40.341 56.273 56.291l0.723 0.527z" />
<glyph unicode="&#xe946;" glyph-name="android-open" d="M807.787 622.827h-567.396v14.933c0 156.682 127.016 283.698 283.698 283.698s283.698-127.016 283.698-283.698v0zM270.684 652.693h506.809c-8.157 133.575-118.482 238.817-253.387 238.817s-245.23-105.242-253.352-238.103l-0.035-0.714zM647.111-64h-3.556c-32.974 0.040-59.693 26.76-59.733 59.729v119.435h-119.467v-119.431c-0.040-32.974-26.76-59.693-59.729-59.733h-3.559c-32.974 0.040-59.693 26.76-59.733 59.729v119.435h-19.982c-44.688 0.061-80.899 36.271-80.96 80.954v411.882h567.396v-411.876c-0.061-44.688-36.271-80.899-80.954-80.96h-19.81v-119.431c-0.040-32.999-26.8-59.733-59.804-59.733-0.038 0-0.075 0-0.112 0h0.006zM434.489 145.031h179.2v-149.333c0.020-16.487 13.38-29.846 29.865-29.867h3.558c16.487 0.020 29.846 13.38 29.867 29.865v149.335h49.778c28.202 0.040 51.053 22.892 51.093 51.089v381.906h-507.627v-381.902c0.040-28.202 22.892-51.053 51.089-51.093h49.782v-149.333c0.020-16.487 13.38-29.846 29.865-29.867h3.558c16.487 0.020 29.846 13.38 29.867 29.865v0.002zM882.418 238.222h-3.556c-32.974 0.040-59.693 26.76-59.733 59.729v246.475c0.040 32.974 26.76 59.693 59.729 59.733h3.559c32.974-0.040 59.693-26.76 59.733-59.729v-246.368c0-0.011 0-0.023 0-0.036 0-33.004-26.735-59.764-59.729-59.804h-0.004zM878.862 574.187c-16.487-0.020-29.846-13.38-29.867-29.865v-246.366c0.020-16.487 13.38-29.846 29.865-29.867h3.558c16.487 0.020 29.846 13.38 29.867 29.865v246.473c-0.020 16.487-13.38 29.846-29.865 29.867h-0.002zM169.493 238.222h-3.556c-32.974 0.040-59.693 26.76-59.733 59.729v246.475c0.040 32.974 26.76 59.693 59.729 59.733h3.559c32.974-0.040 59.693-26.76 59.733-59.729v-246.368c0-0.011 0-0.023 0-0.036 0-33.004-26.735-59.764-59.729-59.804h-0.004zM165.938 574.187c-16.487-0.020-29.846-13.38-29.867-29.865v-246.366c0.020-16.487 13.38-29.846 29.865-29.867h3.558c16.487 0.020 29.846 13.38 29.867 29.865v246.473c-0.020 16.487-13.38 29.846-29.865 29.867h-0.002zM584.453 902.134l57.851 57.851 21.119-21.119-57.851-57.851-21.119 21.119zM384.744 938.898l21.119 21.119 57.851-57.851-21.119-21.119-57.851 57.851zM645.404 697.493c-31.949 0-57.849 25.9-57.849 57.849s25.9 57.849 57.849 57.849c31.949 0 57.849-25.9 57.849-57.849v0c-0.040-31.933-25.916-57.808-57.845-57.849h-0.004zM645.404 783.36c-15.454 0-27.982-12.528-27.982-27.982s12.528-27.982 27.982-27.982c15.454 0 27.982 12.528 27.982 27.982v0c-0.040 15.431-12.549 27.927-27.98 27.947h-0.002zM406.507 697.493c-31.949 0-57.849 25.9-57.849 57.849s25.9 57.849 57.849 57.849c31.949 0 57.849-25.9 57.849-57.849v0c-0.040-31.933-25.916-57.808-57.845-57.849h-0.004zM406.507 783.36c-15.454 0-27.982-12.528-27.982-27.982s12.528-27.982 27.982-27.982c15.454 0 27.982 12.528 27.982 27.982v0c-0.040 15.431-12.549 27.927-27.98 27.947h-0.002z" />
<glyph unicode="&#xe947;" glyph-name="android" d="M576 898.418c-23.543 7.118-50.6 11.215-78.613 11.215-155.268 0-281.138-125.87-281.138-281.138 0-0.018 0-0.035 0-0.053v0.002h562.418c-0.033 127.298-84.635 234.827-200.676 269.463l-1.991 0.51zM374.364 706.418c-24.801 0-44.907 20.105-44.907 44.907s20.105 44.907 44.907 44.907c24.801 0 44.907-20.105 44.907-44.907v0c-0.061-24.755-20.143-44.8-44.907-44.8 0 0 0 0 0 0v0zM624.249 706.418c-24.801 0-44.907 20.105-44.907 44.907s20.105 44.907 44.907 44.907c24.801 0 44.907-20.105 44.907-44.907v0c-0.061-24.743-20.123-44.78-44.869-44.8h-0.002zM778.667 608.924v-415.111c0-38.154-30.93-69.084-69.084-69.084v0h-36.48v-140.551c-0.081-25.849-21.013-46.782-46.854-46.862h-4.026c-25.849 0.081-46.782 21.013-46.862 46.854v140.559h-156.089v-140.551c-0.081-25.849-21.013-46.782-46.854-46.862h-3.919c-25.849 0.081-46.782 21.013-46.862 46.854v140.559h-36.302c-38.154 0-69.084 30.93-69.084 69.084v0 415.111zM848.818 605.013h3.876c25.881 0 46.862-20.981 46.862-46.862v-257.707c0-25.881-20.981-46.862-46.862-46.862h-3.876c-25.881 0-46.862 20.981-46.862 46.862v257.707c0 25.881 20.981 46.862 46.862 46.862zM145.92 253.582h-3.876c-25.881 0-46.862 20.981-46.862 46.862v257.707c0 25.881 20.981 46.862 46.862 46.862h3.876c25.881 0 46.862-20.981 46.862-46.862v-257.707c0-25.881-20.981-46.862-46.862-46.862zM566.056 899.461l60.516 60.516 11.037-11.037-60.516-60.516-11.037 11.037zM357.158 948.966l11.037 11.037 60.516-60.516-11.037-11.037-60.516 60.516z" />
<glyph unicode="&#xe948;" glyph-name="alarm-clock-open" d="M117.973 607.182l-12.871 11.769c-39.14 35.881-63.589 87.243-63.589 144.315 0 108.002 87.553 195.556 195.556 195.556 75.599 0 141.178-42.898 173.724-105.68l0.513-1.088 7.964-15.573-16.96-4.231c-118.862-30.822-216.188-106.711-274.596-207.891l-1.137-2.135zM237.12 930.738c-92.623-0.005-167.707-75.092-167.707-167.716 0-42.835 16.058-81.92 42.484-111.562l-0.146 0.166c60.844 96.688 153.409 168.64 262.837 201.799l3.332 0.868c-30.212 46.365-81.811 76.587-140.469 76.587-0.116 0-0.233 0-0.349 0h0.018zM899.556 610.133l-8.889 15.36c-60.53 102.996-158.853 178.267-275.465 207.253l-3.042 0.64-17.316 4.124 8.249 15.822c33.28 63.161 98.486 105.486 173.578 105.486 108.002 0 195.556-87.553 195.556-195.556 0-55.245-22.908-105.139-59.743-140.702l-0.057-0.055zM636.693 855.716c113.352-32.976 206.692-104.226 267.284-198.522l1.124-1.87c24.324 28.715 39.113 66.18 39.113 107.099 0 0.26-0.001 0.521-0.002 0.781v-0.040c-0.023 92.61-75.103 167.675-167.716 167.675-58.184 0-109.449-29.629-139.528-74.622l-0.383-0.609zM509.547-62.649c-107.987 0.107-207.406 36.7-286.617 98.113l1.070-0.798-58.169-58.027c-11.292-11.727-27.128-19.010-44.664-19.010-34.227 0-61.973 27.746-61.973 61.973 0 17.545 7.291 33.388 19.009 44.663l0.020 0.019 58.347 58.382c-59.289 77.588-94.998 175.948-94.998 282.648 0 217.971 149.020 401.136 350.737 453.174l3.248 0.711c34.206 8.948 73.476 14.086 113.946 14.086 172.239 0 322.742-93.063 403.969-231.648l1.195-2.207c39.466-67.176 62.776-147.962 62.776-234.193 0-110.677-38.4-212.385-102.603-292.528l0.717 0.925 49.351-49.351c11.226-11.217 18.17-26.718 18.17-43.84 0-34.227-27.747-61.974-61.974-61.974-17.105 0-32.591 6.93-43.805 18.134v0l-51.129 51.164c-75.868-56.48-171.424-90.421-274.907-90.421-0.603 0-1.206 0.001-1.808 0.003h0.093zM221.831 71.964l9.742-7.964c75.153-61.515 172.201-98.816 277.959-98.88h0.014c0.388-0.001 0.847-0.002 1.306-0.002 101.407 0 194.723 34.641 268.76 92.735l-0.946-0.715 9.671 7.502 68.551-68.196c6.082-5.647 14.259-9.112 23.245-9.112 18.891 0 34.204 15.314 34.204 34.204 0 8.995-3.472 17.179-9.149 23.284l0.019-0.021-67.271 67.271 8.213 9.742c64.364 76.038 103.495 175.224 103.495 283.551 0 206.649-142.401 380.038-334.428 427.392l-3.022 0.63c-30.806 7.698-66.171 12.116-102.567 12.116-163.367 0-305.95-88.99-381.917-221.14l-1.134-2.14c-35.959-62.355-57.173-137.139-57.173-216.877 0-0.004 0-0.008 0-0.012v0c-0.002-0.522-0.004-1.139-0.004-1.756 0-103.906 36.411-199.309 97.171-274.143l-0.634 0.806 7.787-9.707-75.876-75.876c-7.058-6.294-11.482-15.413-11.482-25.566 0-18.891 15.314-34.204 34.204-34.204 10.188 0 19.336 4.454 25.602 11.522l0.031 0.036zM682.027 217.92l-30.613-30.613c-5.741-5.715-13.658-9.248-22.4-9.248s-16.659 3.533-22.401 9.25l-143.75 143.75c-2.918 2.904-5.265 6.38-6.858 10.246l-0.076 0.208c-4.958 6.881-7.929 15.48-7.929 24.774 0 0.040 0 0.081 0 0.121v-0.006 398.044c0 23.564 19.103 42.667 42.667 42.667v0h21.333c23.564 0 42.667-19.103 42.667-42.667v0-374.364l127.36-127.36c5.715-5.741 9.248-13.658 9.248-22.4s-3.533-16.659-9.25-22.401l0.001 0.001z" />
<glyph unicode="&#xe949;" glyph-name="alarm-clock" d="M83.982 661.333c-22.186 30.242-35.502 68.196-35.502 109.261 0 102.661 83.223 185.884 185.884 185.884 58.625 0 110.911-27.139 144.98-69.539l0.281-0.362c-126.125-35.971-229.527-116.476-294.389-223.025l-1.255-2.22zM972.302 770.56c0-0.091 0-0.199 0-0.308 0-39.219-12.211-75.586-33.039-105.506l0.399 0.605c-67.034 107.949-171.074 187.51-294.035 221.497l-3.529 0.832c34.345 42.117 86.235 68.796 144.356 68.796 102.642 0 185.849-83.207 185.849-185.849 0-0.024 0-0.047 0-0.071v0.004zM893.476 79.787l-24.889 24.889c67.948 80.27 109.257 184.978 109.257 299.335 0 256.633-208.042 464.676-464.676 464.676s-464.676-208.042-464.676-464.676c0-110.264 38.405-211.558 102.569-291.234l-0.698 0.895-25.138-24.782-43.449-43.698c-8.561-8.843-13.838-20.911-13.838-34.211 0-27.177 22.032-49.209 49.209-49.209 13.3 0 25.368 5.277 34.225 13.851l68.325 68.36c79.297-64.952 181.735-104.316 293.368-104.316 107.611 0 206.679 36.58 285.446 97.983l-1.037-0.778 61.084-61.12c8.611-7.571 19.977-12.191 32.422-12.191 27.177 0 49.209 22.032 49.209 49.209 0 12.445-4.62 23.812-12.239 32.477l0.047-0.055zM692.693 239.253l-30.613-30.613c-5.741-5.715-13.658-9.248-22.4-9.248s-16.659 3.533-22.401 9.25l-143.75 143.75c-2.918 2.904-5.265 6.38-6.858 10.246l-0.076 0.208c-4.958 6.881-7.929 15.48-7.929 24.774 0 0.040 0 0.081 0 0.121v-0.006 398.044c0 23.564 19.103 42.667 42.667 42.667v0h21.333c23.564 0 42.667-19.103 42.667-42.667v0-374.364l127.36-127.36c5.715-5.741 9.248-13.658 9.248-22.4s-3.533-16.659-9.25-22.401l0.001 0.001z" />
<glyph unicode="&#xe94a;" glyph-name="addressbook-open" d="M430.436 399.644c-51.913 27.548-86.667 81.261-86.667 143.091 0 89.171 72.287 161.458 161.458 161.458s161.458-72.287 161.458-161.458c0-60.022-32.752-112.395-81.36-140.221l-0.79-0.417c87.475-31.274 148.942-113.431 148.942-209.944 0-0.054 0-0.108 0-0.163v0.008h-445.476c0 0.006 0 0.013 0 0.020 0 94.095 58.398 174.55 140.927 207.1l1.509 0.524zM931.164 664.889c8.071 0 14.613 6.543 14.613 14.613v0 48.996c0 8.071-6.543 14.613-14.613 14.613v0h-42.276v139.236c0 40.923-33.175 74.098-74.098 74.098v0h-605.582c-40.923 0-74.098-33.175-74.098-74.098v0-868.693c0-40.923 33.175-74.098 74.098-74.098v0h605.582c40.923 0 74.098 33.175 74.098 74.098v0 139.236h42.276c8.071 0 14.613 6.543 14.613 14.613v0 48.996c0 8.071-6.543 14.613-14.613 14.613v0h-42.276v177.778h42.276c8.071 0 14.613 6.543 14.613 14.613v0 48.996c0 8.071-6.543 14.613-14.613 14.613v0h-42.276v177.778zM818.347-28.444h-609.138c-23.25 0-42.098 18.848-42.098 42.098v0 868.693c0 23.25 18.848 42.098 42.098 42.098h609.138c23.25 0 42.098-18.848 42.098-42.098v0-868.693c0-23.25-18.848-42.098-42.098-42.098v0z" />
<glyph unicode="&#xe94b;" glyph-name="addressbook" d="M861.227 672h51.591c8.385 0 15.182 6.797 15.182 15.182v0 51.413c0 8.385-6.797 15.182-15.182 15.182v0h-51.591c-0.016 0-0.035 0-0.054 0-2.899 0-5.607-0.82-7.904-2.242l0.064 0.037v147.982c0 33.383-27.062 60.444-60.444 60.444v0h-632.889c-33.383 0-60.444-27.062-60.444-60.444v0-903.111c0-33.383 27.062-60.444 60.444-60.444v0h632.889c33.383 0 60.444 27.062 60.444 60.444v0 147.982c2.232-1.384 4.94-2.205 7.839-2.205 0.019 0 0.038 0 0.057 0h51.588c8.385 0 15.182 6.797 15.182 15.182v51.413c0 8.385-6.797 15.182-15.182 15.182v0h-51.591c-0.016 0-0.035 0-0.054 0-2.899 0-5.607-0.82-7.904-2.242l0.064 0.037v189.298c2.232-1.384 4.94-2.205 7.839-2.205 0.019 0 0.038 0 0.057 0h51.588c8.385 0 15.182 6.797 15.182 15.182v51.413c0 8.385-6.797 15.182-15.182 15.182v0h-51.591c-0.016 0-0.035 0-0.054 0-2.899 0-5.607-0.82-7.904-2.242l0.064 0.037v185.742c2.232-1.384 4.94-2.205 7.839-2.205 0.019 0 0.038 0 0.057 0h-0.003zM242.24 181.333c0 0.020 0 0.043 0 0.066 0 97.799 60.663 181.43 146.414 215.316l1.568 0.546c-53.984 28.646-90.125 84.501-90.125 148.796 0 92.725 75.168 167.893 167.893 167.893s167.893-75.168 167.893-167.893c0-62.41-34.053-116.867-84.591-145.803l-0.821-0.433c90.963-32.528 154.88-117.964 154.88-218.328 0-0.056 0-0.113 0-0.169v0.008z" />
<glyph unicode="&#xe94c;" glyph-name="adjust-open" d="M512 835.556v-775.111c214.041 0 387.556 173.515 387.556 387.556s-173.515 387.556-387.556 387.556v0zM512-59.84c-280 0-507.84 227.84-507.84 507.84s227.84 507.84 507.84 507.84 507.84-227.84 507.84-507.84-227.84-507.84-507.84-507.84zM512 921.493c-261.084 0-473.493-212.409-473.493-473.493s212.409-473.493 473.493-473.493 473.493 212.409 473.493 473.493-212.409 473.493-473.493 473.493z" />
<glyph unicode="&#xe94d;" glyph-name="adjust" d="M512 956.444c-280.806 0-508.444-227.638-508.444-508.444s227.638-508.444 508.444-508.444c280.806 0 508.444 227.638 508.444 508.444v0c0 280.806-227.638 508.444-508.444 508.444v0zM512 46.222v803.556c221.896 0 401.778-179.882 401.778-401.778s-179.882-401.778-401.778-401.778v0z" />
<glyph unicode="&#xe94e;" glyph-name="engranaje" d="M896.924 422.649l123.52 16.462-19.52 144-123.093-16.462c-4.124 12.338-9.067 24.462-14.222 36.302l101.689 71.324-83.84 118.862-101.689-71.36c-9.316 8.996-19.342 17.493-29.44 25.742l57.316 109.938-129.28 66.987-57.316-109.938c-15.473 4.798-34.297 9.030-53.574 11.866l-2.141 0.259v133.369h-145.778v-140.338c-16.791-4.060-30.423-8.207-43.741-13.009l2.924 0.921-63.716 106.667-125.12-73.956 63.467-106.88c-9.564-8.747-18.844-17.778-27.876-27.271l-105.564 65.422-76.871-123.378 105.564-65.387c-3.894-9.549-8.035-21.893-11.518-34.509l-0.606-2.575-124.16 9.529-11.093-144.96 123.627-9.529c1.714-15.076 3.976-28.213 6.911-41.094l-0.475 2.48-114.311-48.427 56.889-133.618 114.204 48.427c7.467-10.667 15.218-21.333 23.467-31.431l-78.969-95.538 112.249-92.444 78.969 95.502c9.363-5.356 20.974-11.129 32.904-16.303l2.438-0.941-25.813-120.889 142.222-30.364 26.062 121.28c2.844 0 5.689-0.249 8.818-0.249 0.045 0 0.099 0 0.153 0 10.665 0 21.201 0.555 31.579 1.639l-1.296-0.11 32.782-119.716 140.373 38.364-32.747 119.716c13.508 6.595 24.662 12.936 35.4 19.866l-1.338-0.808 84.658-91.2 106.667 98.631-84.622 91.129c7.716 10.311 14.969 21.333 21.653 32.462l117.333-41.956 49.28 136.711-117.333 41.956c1.779 10.941 3.187 24.306 3.906 37.854l0.041 0.972zM511.502 237.76c-0.074 0-0.161 0-0.249 0-113.893 0-206.222 92.329-206.222 206.222s92.329 206.222 206.222 206.222c113.893 0 206.222-92.329 206.222-206.222 0-0.075 0-0.15 0-0.225v0.012c0-113.763-92.213-205.989-205.971-206.009h-0.002z" />
</font>
</defs>
</svg>
